<svg width="756" height="927" viewBox="0 0 756 927" fill="none" xmlns="http://www.w3.org/2000/svg">
<path d="M36.0514 886.792L88.3461 914.674L109.596 819.04L36.0514 886.792Z" stroke="#613DE4" stroke-opacity="0.15" stroke-width="0.5"/>
<circle cx="36.0515" cy="886.792" r="0.848951" transform="rotate(-105 36.0515 886.792)" fill="#613DE4"/>
<circle cx="88.3464" cy="914.674" r="0.848951" transform="rotate(-105 88.3464 914.674)" fill="#613DE4"/>
<circle cx="109.596" cy="819.04" r="0.848951" transform="rotate(-105 109.596 819.04)" fill="#613DE4"/>
<path d="M680.259 409.058L567.196 265.972L728.416 320.348L680.259 409.058Z" stroke="#613DE4" stroke-opacity="0.15" stroke-width="0.5"/>
<circle cx="567.196" cy="265.972" r="2.77612" transform="rotate(-30 567.196 265.972)" fill="#613DE4"/>
<circle cx="727.722" cy="319.146" r="2.77612" transform="rotate(-30 727.722 319.146)" fill="#613DE4"/>
<circle cx="681.461" cy="408.364" r="2.77612" transform="rotate(-30 681.461 408.364)" fill="#613DE4"/>
<path d="M789.204 98.0569L663.99 152.021L734.458 46.1127L789.204 98.0569Z" stroke="#613DE4" stroke-opacity="0.15" stroke-width="0.5"/>
<circle cx="663.99" cy="152.021" r="2.0756" transform="rotate(-105 663.99 152.021)" fill="#613DE4"/>
<circle cx="733.455" cy="46.3813" r="2.0756" transform="rotate(-105 733.455 46.3813)" fill="#613DE4"/>
<path d="M544 924L454 703L706 774L544 924Z" stroke="#613DE4" stroke-opacity="0.15" stroke-width="0.5"/>
<circle cx="453" cy="702" r="3" fill="#613DE4"/>
<circle cx="706" cy="774" r="3" fill="#613DE4"/>
<circle cx="545" cy="924" r="3" fill="#613DE4"/>
<path d="M127.612 191.87L94.6123 228.87L290.612 361.87L127.612 191.87Z" stroke="#613DE4" stroke-opacity="0.15" stroke-width="0.5"/>
<circle cx="290.598" cy="361.155" r="2" transform="rotate(30 290.598 361.155)" fill="#613DE4"/>
<circle cx="127.876" cy="190.997" r="2" transform="rotate(30 127.876 190.997)" fill="#613DE4"/>
<circle cx="94.7154" cy="228.433" r="2" transform="rotate(30 94.7154 228.433)" fill="#613DE4"/>
<path d="M335.188 160.587L357.118 66.0864L196.899 73.0052L335.188 160.587Z" stroke="#613DE4" stroke-opacity="0.15" stroke-width="0.5"/>
<circle cx="335.188" cy="160.588" r="1.38971" transform="rotate(150 335.188 160.588)" fill="#613DE4"/>
<circle cx="357.118" cy="66.0864" r="1.38971" transform="rotate(150 357.118 66.0864)" fill="#613DE4"/>
<circle cx="196.898" cy="73.0052" r="1.38971" transform="rotate(150 196.898 73.0052)" fill="#613DE4"/>
<path d="M61.1404 573.18L110.476 735.207L346.684 584.884L61.1404 573.18Z" stroke="#613DE4" stroke-opacity="0.15" stroke-width="0.5"/>
<circle cx="61.14" cy="573.18" r="2.42626" transform="rotate(-60 61.14 573.18)" fill="#613DE4"/>
<circle cx="110.476" cy="735.208" r="2.42626" transform="rotate(-60 110.476 735.208)" fill="#613DE4"/>
<circle cx="346.684" cy="584.885" r="2.42626" transform="rotate(-60 346.684 584.885)" fill="#613DE4"/>
</svg>
