<svg width="540" height="540" viewBox="0 0 540 540" fill="none" xmlns="http://www.w3.org/2000/svg">
<path d="M410.52 435.714C412.16 435.744 413.8 435.774 415.43 435.784C418.67 435.804 422.19 435.014 424.21 432.484C426.94 429.064 426.36 423.314 426.32 419.194C426.17 401.284 425.82 383.384 425.82 365.474C425.84 347.004 425.77 328.534 425.6 310.054C425.52 301.084 425.25 292.104 425.19 283.144C425.08 265.084 425.11 246.804 424.66 228.884C424.6 226.414 424.36 223.604 422.41 222.084C421.05 221.034 419.21 220.904 417.49 220.844C410.16 220.574 402.82 220.624 395.48 220.794C359.16 221.634 322.83 222.134 286.49 222.184C268.72 222.204 251 222.684 233.25 222.244C196.75 221.334 160.26 220.914 123.74 220.544C119.56 220.504 115.38 220.534 111.19 220.514C105.96 220.484 100.62 220.464 95.51 221.734C90.36 223.014 87.81 225.884 87.1 231.274C85.87 240.634 87.45 249.954 87.75 259.314C88.94 295.234 86.64 331.144 87.52 367.064C87.73 376.764 87.61 386.454 87.31 396.144C87.02 405.354 85.64 414.784 87.09 423.954C87.51 426.584 88.22 429.274 89.89 431.344C91.76 433.664 94.65 434.984 97.59 435.504C105.53 436.934 114.85 435.154 122.92 434.884C132.12 434.584 141.33 434.344 150.53 434.184C168.94 433.854 187.36 433.814 205.77 434.044C242.22 434.514 278.66 434.754 315.14 434.584C317.72 434.574 320.29 434.544 322.87 434.544C340.58 434.544 358.29 434.474 375.99 434.654C387.52 434.784 399.03 435.474 410.52 435.714Z" fill="#111112"/>
<path d="M415 431.314C418.15 431.514 422.62 430.564 425.43 432.214C426.72 432.964 427.6 434.244 428.43 435.474C430.58 438.644 432.74 441.814 434.89 444.984C436.86 447.884 439.1 450.754 439.94 454.234C441.6 461.094 435.84 464.834 429.79 465.704C418.06 467.374 405.31 467.554 393.48 467.624C366.4 467.774 339.32 468.144 312.24 468.144C296.73 468.144 281.26 468.264 265.77 468.164C238.3 467.994 210.83 467.874 183.38 467.874C172.73 467.874 162.07 467.884 151.42 467.884C137.8 467.884 124.18 467.894 110.56 467.454C103.69 467.234 96.82 466.904 89.97 466.404C83.93 465.964 77.7699 465.974 72.1999 463.504C65.4899 460.524 67.5099 452.914 71.2099 448.284C74.1099 444.654 77.0599 441.054 79.9199 437.394C82.1199 434.584 84.4199 431.824 87.8499 430.494C90.6299 429.414 93.6899 429.364 96.6699 429.334C123.96 429.334 151.23 428.794 178.53 428.844C192.39 428.874 206.24 428.954 220.1 429.104C233.88 429.254 247.72 429.904 261.49 429.704C266.23 429.634 270.99 429.714 275.74 429.764C290.4 429.914 305.05 430.064 319.71 430.224C333.22 430.364 346.73 430.504 360.24 430.644C371 430.754 381.76 430.864 392.52 430.974C398.93 431.044 405.33 431.104 411.74 431.174C412.83 431.184 413.92 431.244 415 431.314Z" fill="#111112"/>
<path d="M424.52 426.714C426.16 426.744 427.8 426.774 429.43 426.784C432.67 426.804 436.19 426.014 438.21 423.484C440.94 420.064 440.36 414.314 440.32 410.194C440.17 392.284 439.82 374.384 439.82 356.474C439.84 338.004 439.77 319.534 439.6 301.054C439.52 292.084 439.25 283.104 439.19 274.144C439.08 256.084 439.11 237.804 438.66 219.884C438.6 217.414 438.36 214.604 436.41 213.084C435.05 212.034 433.21 211.904 431.49 211.844C424.16 211.574 416.82 211.624 409.48 211.794C373.16 212.634 336.83 213.134 300.49 213.184C282.72 213.204 265 213.684 247.25 213.244C210.75 212.334 174.26 211.914 137.74 211.544C133.56 211.504 129.38 211.534 125.19 211.514C119.96 211.484 114.62 211.464 109.51 212.734C104.36 214.014 101.81 216.884 101.1 222.274C99.87 231.634 101.45 240.954 101.75 250.314C102.94 286.234 100.64 322.144 101.52 358.064C101.73 367.764 101.61 377.454 101.31 387.144C101.02 396.354 99.64 405.784 101.09 414.954C101.51 417.584 102.22 420.274 103.89 422.344C105.76 424.664 108.65 425.984 111.59 426.504C119.53 427.934 128.85 426.154 136.92 425.884C146.12 425.584 155.33 425.344 164.53 425.184C182.94 424.854 201.36 424.814 219.77 425.044C256.22 425.514 292.66 425.754 329.14 425.584C331.72 425.574 334.29 425.544 336.87 425.544C354.58 425.544 372.29 425.474 389.99 425.654C401.52 425.784 413.03 426.474 424.52 426.714Z" fill="#FBFCFE"/>
<path d="M429 422.314C432.15 422.514 436.62 421.564 439.43 423.214C440.72 423.964 441.6 425.244 442.43 426.474C444.58 429.644 446.74 432.814 448.89 435.984C450.86 438.884 453.1 441.754 453.94 445.234C455.6 452.094 449.84 455.834 443.79 456.704C432.06 458.374 419.31 458.554 407.48 458.624C380.4 458.774 353.32 459.144 326.24 459.144C310.73 459.144 295.26 459.264 279.77 459.164C252.3 458.994 224.83 458.874 197.38 458.874C186.73 458.874 176.07 458.884 165.42 458.884C151.8 458.884 138.18 458.894 124.56 458.454C117.69 458.234 110.82 457.904 103.97 457.404C97.93 456.964 91.7699 456.974 86.1999 454.504C79.4899 451.524 81.5099 443.914 85.2099 439.284C88.1099 435.654 91.0599 432.054 93.9199 428.394C96.1199 425.584 98.4199 422.824 101.85 421.494C104.63 420.414 107.69 420.364 110.67 420.334C137.96 420.334 165.23 419.794 192.53 419.844C206.39 419.874 220.24 419.954 234.1 420.104C247.88 420.254 261.72 420.904 275.49 420.704C280.23 420.634 284.99 420.714 289.74 420.764C304.4 420.914 319.05 421.064 333.71 421.224C347.22 421.364 360.73 421.504 374.24 421.644C385 421.754 395.76 421.864 406.52 421.974C412.93 422.044 419.33 422.104 425.74 422.174C426.83 422.184 427.92 422.244 429 422.314Z" fill="#FBFCFE"/>
<path d="M88.9953 444.126C85.2605 444.126 83.5757 448.803 86.4505 451.195C87.9468 452.444 88.9954 452.81 92.1411 453.21C115 456.114 216.5 456.419 269 456.114C321.5 455.809 414.5 456.114 443.992 453.21C449 452.114 448.434 452.338 449.978 450.947C452.628 448.556 450.755 444.114 447.185 444.114H88.9953V444.126Z" fill="#613DE4"/>
<path d="M429 423.814C431.44 423.924 433.9 423.514 436.33 423.814C439.45 424.204 440.73 426.614 442.35 429.014C444.16 431.674 445.96 434.344 447.78 436.994C449.39 439.344 451.21 441.694 452.15 444.424C453.8 449.214 451.24 452.924 446.67 454.474C444.14 455.334 441.41 455.534 438.77 455.814C435.69 456.144 432.6 456.384 429.5 456.564C416.94 457.294 404.34 457.124 391.76 457.224C378.59 457.324 365.41 457.454 352.24 457.544C326.01 457.714 299.77 457.774 273.53 457.624C247.18 457.464 220.83 457.364 194.48 457.374C168.35 457.384 142.16 457.844 116.04 456.624C109.86 456.334 103.66 455.984 97.4899 455.474C94.6299 455.234 91.7699 454.854 89.0299 453.974C86.8699 453.284 84.5299 452.324 83.6599 450.044C82.1599 446.104 85.0299 441.894 87.3699 438.984C89.3399 436.534 91.3099 434.104 93.2699 431.644C94.9499 429.534 96.5299 427.304 98.4999 425.454C103.11 421.114 109.57 421.844 115.43 421.834C122.01 421.824 128.58 421.774 135.16 421.724C148.31 421.614 161.47 421.464 174.62 421.384C200.74 421.234 226.87 421.374 252.98 421.994C265.97 422.304 278.95 422.154 291.94 422.294C305.13 422.434 318.32 422.564 331.51 422.704C357.82 422.974 384.13 423.254 410.44 423.524C416.62 423.574 422.84 423.434 429 423.814C430.93 423.934 430.92 420.934 429 420.814C422.48 420.414 415.91 420.564 409.38 420.504C402.44 420.434 395.5 420.364 388.56 420.284C374.82 420.144 361.09 420.004 347.35 419.854C333.52 419.714 319.7 419.564 305.87 419.424C292.36 419.284 278.85 419.344 265.34 419.214C251.77 419.074 238.2 418.624 224.63 418.504C210.89 418.384 197.15 418.304 183.41 418.344C169.77 418.374 156.12 418.524 142.48 418.654C135.54 418.714 128.59 418.774 121.65 418.804C118.24 418.824 114.83 418.824 111.42 418.834C108.51 418.844 105.5 418.844 102.68 419.644C97.2299 421.194 94.0699 425.864 90.7199 430.064C87.4799 434.124 83.3099 438.104 81.3499 442.994C79.9299 446.524 79.7699 450.764 82.4999 453.714C86.0899 457.594 92.8999 458.104 97.8199 458.494C124.67 460.604 151.6 460.384 178.5 460.374C205.88 460.364 233.27 460.394 260.65 460.544C288.01 460.684 315.36 460.714 342.72 460.594C356.5 460.534 370.29 460.404 384.07 460.284C397.35 460.174 410.66 460.314 423.94 459.824C430.26 459.594 436.59 459.164 442.86 458.324C447.18 457.744 451.78 456.354 454.29 452.494C457.07 448.214 455.29 443.064 452.81 439.104C451.16 436.464 449.31 433.934 447.56 431.364C445.85 428.854 444.27 426.154 442.33 423.824C438.9 419.704 433.69 421.034 428.99 420.824C427.07 420.724 427.08 423.724 429 423.814Z" fill="#613DE4"/>
<path d="M424.52 426.714C426.16 426.744 427.8 426.774 429.43 426.784C432.67 426.804 436.19 426.014 438.21 423.484C440.94 420.064 440.36 414.314 440.32 410.194C440.17 392.284 439.82 374.384 439.82 356.474C439.84 338.004 439.77 319.534 439.6 301.054C439.52 292.084 439.25 283.104 439.19 274.144C439.08 256.084 439.11 237.804 438.66 219.884C438.6 217.414 438.36 214.604 436.41 213.084C435.05 212.034 433.21 211.904 431.49 211.844C424.16 211.574 416.82 211.624 409.48 211.794C373.16 212.634 336.83 213.134 300.49 213.184C282.72 213.204 265 213.684 247.25 213.244C210.75 212.334 174.26 211.914 137.74 211.544C133.56 211.504 129.38 211.534 125.19 211.514C119.96 211.484 114.62 211.464 109.51 212.734C104.36 214.014 101.81 216.884 101.1 222.274C99.87 231.634 101.45 240.954 101.75 250.314C102.94 286.234 100.64 322.144 101.52 358.064C101.73 367.764 101.61 377.454 101.31 387.144C101.02 396.354 99.64 405.784 101.09 414.954C101.51 417.584 102.22 420.274 103.89 422.344C105.76 424.664 108.65 425.984 111.59 426.504C119.53 427.934 128.85 426.154 136.92 425.884C146.12 425.584 155.33 425.344 164.53 425.184C182.94 424.854 201.36 424.814 219.77 425.044C256.22 425.514 292.66 425.754 329.14 425.584C331.72 425.574 334.29 425.544 336.87 425.544C354.58 425.544 372.29 425.474 389.99 425.654C401.52 425.784 413.03 426.474 424.52 426.714Z" fill="#FBFCFE"/>
<path d="M424.52 428.214C428.21 428.284 432.1 428.654 435.58 427.194C438.57 425.944 440.51 423.484 441.3 420.374C442.11 417.194 441.88 413.874 441.83 410.624C441.76 406.004 441.74 401.384 441.68 396.764C441.46 378.374 441.35 359.994 441.32 341.604C441.29 322.924 441.19 304.254 440.84 285.584C440.5 267.244 440.65 248.894 440.37 230.544C440.3 226.244 440.51 221.794 440 217.524C439.62 214.304 438.08 211.514 434.73 210.714C433.03 210.304 431.22 210.334 429.49 210.284C427.05 210.214 424.6 210.174 422.15 210.164C417.47 210.144 412.8 210.224 408.12 210.334C389.62 210.754 371.12 211.094 352.62 211.324C333.89 211.564 315.17 211.614 296.44 211.704C278.01 211.794 259.6 212.034 241.17 211.604C204.07 210.734 166.93 210.024 129.82 210.034C125.34 210.034 120.84 209.884 116.37 210.214C112.83 210.474 109.05 210.904 105.83 212.494C99.21 215.744 99.12 223.904 99.15 230.314C99.17 234.774 99.56 239.214 99.89 243.654C100.23 248.344 100.37 253.034 100.47 257.744C100.66 266.944 100.65 276.154 100.55 285.354C100.36 303.874 99.81 322.394 99.83 340.914C99.85 359.374 100.49 377.774 99.34 396.224C99.06 400.754 98.81 405.304 99.07 409.844C99.29 413.654 99.67 417.754 101.4 421.224C105.05 428.534 114.35 428.824 121.44 428.524C125.64 428.344 129.81 427.854 134 427.574C138.56 427.264 143.14 427.224 147.71 427.094C156.91 426.844 166.12 426.664 175.33 426.554C212.42 426.114 249.52 427.014 286.62 427.144C305.06 427.204 323.5 427.094 341.94 427.084C360.44 427.074 378.97 426.834 397.46 427.344C406.48 427.564 415.49 428.024 424.52 428.214C426.45 428.254 426.45 425.254 424.52 425.214C415.5 425.024 406.48 424.564 397.46 424.314C388.37 424.064 379.27 424.074 370.18 424.054C352.34 424.014 334.5 424.104 316.67 424.134C280.56 424.214 244.45 423.674 208.34 423.444C190.38 423.324 172.41 423.474 154.45 423.894C145.81 424.094 137.16 424.234 128.55 424.984C124.47 425.334 120.37 425.694 116.28 425.504C112.57 425.334 108.44 424.804 105.67 422.064C102.75 419.164 102.38 414.324 102.11 410.454C101.81 406.134 102 401.804 102.25 397.484C102.78 388.624 103.09 379.784 103.13 370.904C103.18 361.904 102.87 352.904 102.83 343.914C102.79 334.934 102.89 325.954 103.04 316.974C103.33 298.904 103.78 280.834 103.54 262.764C103.42 253.684 102.81 244.684 102.31 235.624C102.06 231.174 101.93 226.604 102.62 222.184C103.05 219.434 104.14 216.894 106.62 215.444C109.81 213.574 114.02 213.304 117.62 213.114C121.9 212.894 126.19 213.014 130.47 213.014C139.43 213.014 148.38 213.144 157.34 213.244C175.37 213.444 193.39 213.674 211.42 213.984C229.42 214.294 247.43 214.944 265.44 214.924C283.44 214.894 301.44 214.714 319.44 214.614C337.49 214.514 355.55 214.304 373.6 214.004C391.65 213.704 409.76 212.824 427.82 213.234C429.74 213.274 431.79 213.164 433.68 213.534C435.68 213.934 436.59 215.284 436.94 217.204C437.25 218.944 437.18 220.774 437.22 222.534C437.27 224.864 437.32 227.194 437.35 229.534C437.5 238.584 437.55 247.644 437.6 256.704C437.68 274.644 438.04 292.574 438.18 310.514C438.32 328.514 438.25 346.524 438.35 364.524C438.4 373.474 438.51 382.434 438.62 391.384C438.72 399.514 439.18 407.734 438.88 415.854C438.77 418.934 438.2 422.344 435.29 424.014C432.12 425.834 428.02 425.274 424.53 425.204C422.59 425.174 422.59 428.174 424.52 428.214Z" fill="#613DE4"/>
<path d="M415.08 420.134C416.62 420.164 418.16 420.194 419.69 420.204C422.73 420.224 426.04 419.484 427.93 417.104C430.49 413.894 429.95 408.494 429.91 404.624C429.77 387.814 429.44 371.004 429.44 354.194C429.46 336.854 429.39 319.514 429.23 302.174C429.15 293.754 428.9 285.324 428.85 276.914C428.74 259.964 428.77 242.794 428.35 225.974C428.29 223.654 428.07 221.014 426.24 219.594C424.96 218.604 423.24 218.484 421.62 218.434C414.74 218.184 407.84 218.224 400.96 218.384C366.86 219.174 332.76 219.644 298.65 219.684C281.97 219.704 265.33 220.154 248.67 219.734C214.4 218.874 180.15 218.494 145.87 218.144C141.94 218.104 138.02 218.134 134.09 218.114C129.18 218.084 124.17 218.064 119.37 219.254C114.54 220.454 112.14 223.154 111.47 228.214C110.31 237.004 111.79 245.754 112.08 254.534C113.19 288.244 111.04 321.964 111.87 355.684C112.07 364.784 111.96 373.884 111.67 382.984C111.4 391.634 110.1 400.484 111.47 409.094C111.86 411.564 112.53 414.084 114.1 416.034C115.85 418.214 118.57 419.444 121.33 419.944C128.79 421.284 137.53 419.614 145.11 419.364C153.75 419.074 162.39 418.864 171.03 418.704C188.31 418.394 205.6 418.354 222.88 418.574C257.1 419.014 291.31 419.244 325.55 419.084C327.97 419.074 330.39 419.044 332.81 419.044C349.43 419.044 366.06 418.984 382.68 419.154C393.48 419.264 404.29 419.914 415.08 420.134Z" fill="#613DE4"/>
<path d="M339.5 216.5C330.5 216.333 312.2 222.414 317 239.614C321.8 256.814 349.333 251.781 362.5 247.114C374.5 240.781 398.5 231.914 398.5 247.114C398.5 266.114 343.5 272.114 355 290.614C366.5 309.114 406 304.614 433 283.614" stroke="#FBFCFE" stroke-width="4" stroke-linecap="round"/>
<path d="M104.5 336.614C109.333 329.281 122.3 316.214 135.5 322.614C152 330.614 168 320.614 169.5 304.614C170.7 291.814 156.667 269.947 149.5 260.614C140.667 247.614 132.3 223.914 169.5 233.114C206.7 242.314 223 226.947 226.5 218.114" stroke="white" stroke-width="4"/>
<rect x="182" y="340.114" width="176" height="24" rx="4" fill="white"/>
<circle cx="210" cy="352.114" r="4" fill="#111112"/>
<circle cx="234" cy="352.114" r="4" fill="#111112"/>
<circle cx="258" cy="352.114" r="4" fill="#111112"/>
<circle cx="282" cy="352.114" r="4" fill="#111112"/>
<circle cx="306" cy="352.114" r="4" fill="#111112"/>
<circle cx="330" cy="352.114" r="4" fill="#111112"/>
<rect x="220" y="372.114" width="100" height="8" rx="2" fill="#FBFCFE"/>
<g clip-path="url(#clip0_2187_31027)">
<circle cx="270" cy="294.114" r="37.25" stroke="white" stroke-width="1.5"/>
<circle cx="270" cy="294.114" r="27" fill="white"/>
<path fill-rule="evenodd" clip-rule="evenodd" d="M253.225 315.272C254.548 305.54 261.555 298.114 270 298.114C278.445 298.114 285.452 305.54 286.775 315.272C282.168 318.929 276.339 321.114 270 321.114C263.661 321.114 257.832 318.929 253.225 315.272Z" fill="#111112"/>
<ellipse cx="270.5" cy="289.614" rx="5.5" ry="7.5" fill="#111112"/>
</g>
<path d="M233.825 170.217C233.545 169.185 233.353 168.123 233.25 167.046C232.026 154.051 240.949 142.089 253.472 138.918C263.974 136.248 277.175 140.408 283.635 149.331C289.152 156.957 288.488 167.474 284.211 175.512C277.912 187.327 264.033 192.283 251.422 188.123C243.501 185.513 236.023 178.506 233.825 170.217Z" fill="#111112"/>
<path d="M230.875 167.267C230.595 166.235 230.403 165.173 230.3 164.096C229.076 151.101 237.999 139.139 250.522 135.968C261.024 133.298 274.225 137.458 280.685 146.381C286.202 154.007 285.538 164.524 281.261 172.562C274.962 184.377 261.083 189.333 248.472 185.173C240.551 182.563 233.073 175.557 230.875 167.267Z" fill="#F5F7FC"/>
<path d="M233.014 166.677C230.624 157.031 235.477 146.662 243.663 141.352C251.967 135.983 262.764 136.278 271.29 141.071C275.626 143.505 279.446 147.193 281.172 151.942C282.971 156.898 282.721 162.341 281.098 167.311C278.03 176.707 269.564 183.536 259.667 184.318C248.147 185.218 236.2 178.108 233.014 166.677C232.247 163.934 227.984 165.099 228.751 167.857C232.07 179.716 243.545 187.991 255.61 188.772C267.012 189.51 278.222 183.418 283.429 173.182C289.152 161.913 287.736 147.96 277.44 139.891C268.34 132.752 255.36 130.82 244.784 135.702C232.896 141.189 225.55 154.995 228.751 167.857C229.43 170.615 233.692 169.45 233.014 166.677Z" fill="#613DE4"/>
<path d="M247.247 161.603C249.386 164.671 251.348 167.842 253.133 171.132C253.457 171.736 254.401 171.884 254.873 171.353C260.788 164.701 266.983 158.299 273.458 152.193C274.49 151.219 272.927 149.656 271.894 150.629C265.419 156.736 259.224 163.137 253.31 169.789C253.885 169.863 254.475 169.937 255.05 170.011C253.265 166.721 251.304 163.55 249.165 160.482C248.354 159.332 246.421 160.438 247.247 161.603Z" fill="#111112"/>
<path d="M51.9944 402.742C51.8985 402.389 51.8328 402.025 51.7975 401.657C51.3783 397.208 54.4336 393.112 58.7211 392.026C62.3167 391.112 66.8365 392.536 69.0484 395.592C70.9371 398.202 70.7098 401.803 69.2453 404.555C67.089 408.6 62.3369 410.297 58.0191 408.873C55.3072 407.979 52.7469 405.58 51.9944 402.742Z" fill="#111112"/>
<path d="M50.9844 401.732C50.8885 401.379 50.8228 401.015 50.7875 400.647C50.3683 396.198 53.4236 392.102 57.7111 391.016C61.3067 390.102 65.8264 391.526 68.0384 394.582C69.9271 397.192 69.6998 400.793 68.2353 403.545C66.079 407.59 61.3269 409.287 57.0091 407.863C54.2972 406.969 51.7369 404.57 50.9844 401.732Z" fill="#F5F7FC"/>
<path d="M51.7166 401.53C50.8985 398.228 52.5599 394.677 55.3627 392.859C58.2059 391.021 61.9025 391.122 64.8214 392.763C66.3061 393.597 67.6141 394.859 68.205 396.485C68.8211 398.182 68.7352 400.046 68.1797 401.747C67.1293 404.964 64.2306 407.303 60.842 407.57C56.8979 407.878 52.8074 405.444 51.7166 401.53C51.454 400.591 49.9945 400.99 50.2571 401.934C51.3934 405.995 55.3223 408.828 59.4532 409.095C63.3569 409.348 67.1949 407.262 68.9776 403.757C70.937 399.899 70.4522 395.122 66.9273 392.359C63.8114 389.915 59.3674 389.254 55.7465 390.925C51.6762 392.804 49.1613 397.531 50.2571 401.934C50.4894 402.879 51.9489 402.48 51.7166 401.53Z" fill="#613DE4"/>
<path d="M56.5899 399.793C57.3221 400.844 57.9938 401.929 58.6048 403.055C58.7159 403.263 59.0391 403.313 59.2007 403.131C61.2258 400.854 63.3468 398.662 65.5638 396.571C65.9173 396.238 65.382 395.703 65.0285 396.036C62.8115 398.127 60.6905 400.318 58.6654 402.596C58.8624 402.621 59.0644 402.646 59.2613 402.672C58.6503 401.546 57.9786 400.46 57.2464 399.409C56.9686 399.015 56.3071 399.394 56.5899 399.793Z" fill="#111112"/>
<path d="M374.93 508.811C374.687 507.914 374.52 506.992 374.43 506.056C373.367 494.766 381.12 484.372 392 481.617C401.125 479.298 412.595 482.911 418.208 490.665C423.001 497.29 422.424 506.428 418.708 513.412C413.235 523.677 401.176 527.983 390.219 524.369C383.337 522.101 376.84 516.014 374.93 508.811Z" fill="#111112"/>
<path d="M372.367 506.248C372.123 505.351 371.957 504.429 371.867 503.493C370.803 492.203 378.557 481.809 389.437 479.054C398.562 476.734 410.031 480.348 415.645 488.102C420.438 494.727 419.861 503.865 416.144 510.849C410.672 521.114 398.613 525.42 387.656 521.806C380.774 519.538 374.276 513.451 372.367 506.248Z" fill="#F5F7FC"/>
<path d="M374.225 505.736C372.149 497.354 376.365 488.345 383.478 483.732C390.693 479.067 400.074 479.323 407.481 483.488C411.249 485.603 414.568 488.807 416.067 492.933C417.631 497.239 417.413 501.968 416.003 506.287C413.338 514.45 405.982 520.384 397.383 521.063C387.374 521.845 376.993 515.668 374.225 505.736C373.559 503.352 369.855 504.365 370.521 506.761C373.405 517.065 383.375 524.254 393.858 524.933C403.765 525.574 413.504 520.281 418.028 511.387C423.001 501.596 421.77 489.473 412.825 482.463C404.918 476.26 393.64 474.581 384.452 478.823C374.123 483.591 367.74 495.586 370.521 506.761C371.111 509.157 374.815 508.145 374.225 505.736Z" fill="#613DE4"/>
<path d="M386.592 501.327C388.45 503.993 390.155 506.748 391.705 509.606C391.987 510.131 392.807 510.26 393.218 509.798C398.357 504.018 403.739 498.457 409.365 493.151C410.262 492.305 408.904 490.947 408.007 491.793C402.381 497.098 396.998 502.66 391.859 508.44C392.359 508.504 392.872 508.568 393.371 508.632C391.821 505.774 390.116 503.019 388.258 500.353C387.553 499.354 385.874 500.315 386.592 501.327Z" fill="#111112"/>
<path d="M441.306 199.735C441.195 199.327 441.12 198.906 441.079 198.48C440.594 193.335 444.127 188.599 449.085 187.343C453.243 186.286 458.47 187.933 461.028 191.466C463.212 194.485 462.949 198.649 461.255 201.832C458.762 206.51 453.266 208.472 448.273 206.825C445.137 205.791 442.177 203.017 441.306 199.735Z" fill="#111112"/>
<path d="M440.138 198.567C440.027 198.159 439.952 197.738 439.911 197.312C439.426 192.167 442.959 187.431 447.917 186.175C452.075 185.118 457.302 186.765 459.86 190.298C462.044 193.317 461.781 197.481 460.087 200.664C457.594 205.342 452.099 207.304 447.105 205.657C443.969 204.623 441.009 201.849 440.138 198.567Z" fill="#F5F7FC"/>
<path d="M440.985 198.334C440.039 194.514 441.96 190.409 445.201 188.307C448.489 186.181 452.764 186.298 456.14 188.196C457.857 189.159 459.369 190.619 460.052 192.5C460.765 194.462 460.666 196.617 460.023 198.585C458.808 202.305 455.456 205.009 451.538 205.318C446.977 205.674 442.246 202.86 440.985 198.334C440.681 197.248 438.994 197.709 439.297 198.801C440.611 203.496 445.155 206.772 449.932 207.082C454.446 207.374 458.884 204.962 460.946 200.909C463.212 196.447 462.651 190.923 458.575 187.728C454.972 184.902 449.833 184.137 445.645 186.07C440.938 188.242 438.03 193.709 439.297 198.801C439.566 199.893 441.254 199.432 440.985 198.334Z" fill="#613DE4"/>
<path d="M446.621 196.325C447.467 197.539 448.244 198.795 448.951 200.097C449.079 200.337 449.453 200.395 449.64 200.185C451.982 197.551 454.434 195.017 456.998 192.599C457.407 192.213 456.788 191.594 456.379 191.98C453.815 194.398 451.363 196.932 449.021 199.566C449.249 199.595 449.482 199.624 449.71 199.654C449.003 198.351 448.227 197.096 447.38 195.881C447.059 195.425 446.294 195.863 446.621 196.325Z" fill="#111112"/>
<path d="M387.53 313.99C387.33 311.68 387.12 309.36 387.22 307.05C387.32 304.81 387.94 302.48 389.53 300.91C391.4 299.08 394.23 298.64 396.85 298.75C406.08 299.14 415.26 299.32 424.52 299.23C434.76 299.13 445.01 298.87 455.25 298.59C460.37 298.45 465.49 298.3 470.61 298.16C473.1 298.09 475.59 298.02 478.08 297.96C479.9 297.91 482.45 297.47 483.94 298.76C486.16 300.69 485.09 304.91 484.9 307.4C484.55 312.04 484.7 316.78 484.73 321.43C484.76 326.9 484.91 332.36 485.12 337.83C485.32 342.76 485.7 347.62 485.57 352.55C485.53 354.16 485.31 355.83 484.45 357.19C482.78 359.86 478.79 359.64 476.02 359.93C472.04 360.35 468.04 360.61 464.04 360.78C456.03 361.11 448.01 361.06 440 361.12C424.38 361.23 408.77 360.44 393.17 359.88C391.89 359.83 390.53 359.76 389.47 359.03C388.22 358.16 387.71 356.56 387.59 355.04C387.07 348.77 387.43 342.38 387.75 336.11C388.06 329.95 388.07 323.78 387.79 317.62C387.74 316.41 387.63 315.2 387.53 313.99Z" fill="#111112"/>
<path d="M393.53 307.99C393.33 305.68 393.12 303.36 393.22 301.05C393.32 298.81 393.94 296.48 395.53 294.91C397.4 293.08 400.23 292.64 402.85 292.75C412.08 293.14 421.26 293.32 430.52 293.23C440.76 293.13 451.01 292.87 461.25 292.59C466.37 292.45 471.49 292.3 476.61 292.16C479.1 292.09 481.59 292.02 484.08 291.96C485.9 291.91 488.45 291.47 489.94 292.76C492.16 294.69 491.09 298.91 490.9 301.4C490.55 306.04 490.7 310.78 490.73 315.43C490.76 320.9 490.91 326.36 491.12 331.83C491.32 336.76 491.7 341.62 491.57 346.55C491.53 348.16 491.31 349.83 490.45 351.19C488.78 353.86 484.79 353.64 482.02 353.93C478.04 354.35 474.04 354.61 470.04 354.78C462.03 355.11 454.01 355.06 446 355.12C430.38 355.23 414.77 354.44 399.17 353.88C397.89 353.83 396.53 353.76 395.47 353.03C394.22 352.16 393.71 350.56 393.59 349.04C393.07 342.77 393.43 336.38 393.75 330.11C394.06 323.95 394.07 317.78 393.79 311.62C393.74 310.41 393.63 309.2 393.53 307.99Z" fill="#F5F7FC"/>
<path d="M395.03 307.99C394.68 304.04 393.45 297.43 397.78 295.12C399.56 294.17 401.64 294.2 403.6 294.28C406.23 294.39 408.87 294.48 411.5 294.55C421.89 294.83 432.28 294.75 442.67 294.54C453.16 294.33 463.65 294.01 474.14 293.72C476.71 293.65 479.28 293.58 481.85 293.51C483.78 293.46 486.04 293.05 487.94 293.44C489.67 293.8 489.87 295.52 489.84 297.03C489.8 298.81 489.46 300.58 489.35 302.36C489.04 307.45 489.2 312.57 489.26 317.66C489.32 322.87 489.46 328.09 489.7 333.3C489.82 335.91 489.98 338.52 490.06 341.14C490.13 343.54 490.39 346.19 489.89 348.56C489.49 350.47 488.46 351.49 486.59 351.94C484.88 352.35 483.07 352.33 481.32 352.51C471.14 353.54 460.89 353.56 450.67 353.6C440.14 353.64 429.63 353.51 419.1 353.13C413.87 352.95 408.64 352.73 403.41 352.53C402.16 352.48 400.92 352.44 399.67 352.39C398.66 352.35 397.48 352.42 396.56 351.93C394.73 350.94 394.99 347.86 394.92 346.14C394.7 340.96 394.97 335.77 395.23 330.59C395.49 325.49 395.56 320.38 395.42 315.27C395.36 312.83 395.24 310.41 395.03 307.99C394.86 306.08 391.86 306.06 392.03 307.99C392.5 313.4 392.57 318.84 392.46 324.27C392.35 329.78 391.91 335.28 391.84 340.79C391.81 343.53 391.82 346.3 392.09 349.04C392.29 351.06 392.93 353.15 394.72 354.32C396.7 355.63 399.4 355.38 401.66 355.47C404.48 355.58 407.31 355.69 410.13 355.8C421.42 356.24 432.71 356.66 444.01 356.63C455.08 356.61 466.2 356.7 477.24 355.87C479.56 355.69 481.88 355.45 484.2 355.27C486.06 355.12 488.01 354.91 489.65 353.97C493.93 351.51 493.17 345.31 493.04 341.15C492.69 330.07 492.13 319.02 492.17 307.93C492.18 305.43 492.21 302.91 492.5 300.43C492.72 298.57 492.99 296.72 492.65 294.85C492.31 292.98 491.17 291.39 489.35 290.74C487.44 290.06 485.3 290.42 483.32 290.47C472.08 290.76 460.83 291.12 449.59 291.39C438.45 291.66 427.31 291.87 416.17 291.66C413.37 291.61 410.58 291.53 407.78 291.44C405.27 291.36 402.69 291.05 400.2 291.36C398.09 291.62 396.01 292.34 394.47 293.86C392.85 295.45 392.09 297.66 391.82 299.87C391.49 302.56 391.79 305.31 392.02 308C392.19 309.9 395.19 309.92 395.03 307.99Z" fill="#613DE4"/>
<path d="M443.51 317.082C446.986 318.386 449.903 322.221 449.474 326.284C449.093 329.93 446.2 332.867 442.807 333.272C437.533 333.905 431.033 329.284 432.747 323.031C434.068 318.272 439.128 315.601 443.51 317.082C445.045 317.601 445.7 315.031 444.176 314.525C439.247 312.854 433.747 315.297 431.235 320.094C429.247 323.879 429.687 328.335 432.354 331.588C434.711 334.474 438.509 336.12 442.093 335.993C446.51 335.841 450.403 332.765 451.641 328.196C453.236 322.31 449.296 316.449 444.164 314.525C442.652 313.942 441.998 316.512 443.51 317.082Z" fill="#111112"/>
<path d="M458.837 333.814C453.512 340.608 444.53 344.321 436.073 341.676C428.273 339.237 422.022 332.139 422.582 323.743C423.119 315.881 429.029 308.94 436.682 307.096C444.579 305.191 453.816 308.115 457.692 315.553C458.825 317.725 459.422 320.164 459.434 322.602C459.447 324.556 459.325 327.055 457.96 328.596C455.986 330.817 453.487 328.705 452.72 326.57C451.757 323.913 452.269 320.782 452.902 318.113C453.28 316.524 450.806 315.832 450.441 317.434C449.368 322.008 448.722 328.985 453.78 331.569C455.827 332.612 458.24 332.042 459.776 330.392C461.275 328.79 461.75 326.534 461.933 324.422C462.371 319.29 460.653 314.145 457.143 310.348C453.926 306.865 449.368 304.839 444.713 304.208C434.976 302.898 425.58 307.848 421.693 316.936C419.865 321.195 419.402 326.109 420.876 330.55C422.412 335.185 425.775 339.031 429.894 341.615C440.119 348.022 453.366 344.952 460.665 335.621C461.652 334.335 459.849 332.527 458.837 333.814Z" fill="#111112"/>
<path d="M62.8499 206.47C62.8099 201.07 62.8199 195.67 63.1199 190.33C63.1199 190.32 63.1199 190.3 63.1199 190.29C63.1299 190.18 63.1499 190.07 63.1799 189.97C63.7099 187.74 66.6199 187.05 68.5699 186.83C71.4099 186.51 74.2699 186.51 77.1199 186.51C95.3299 186.5 113.54 186.67 131.74 186.36C136.99 186.27 142.24 186.18 147.49 186.09C151.13 186.03 158.16 185.37 159.98 189.52C160.52 190.74 160.49 192.13 160.45 193.47C160 210.18 159.87 226.88 159.78 243.59C159.77 244.99 159.72 246.51 158.83 247.59C156.38 250.55 149.7 250.09 146.3 250.21C132.87 250.65 119.44 249.81 106.02 250.23C96.8299 250.52 87.6399 250.97 78.4399 250.72C75.3099 250.64 72.1699 250.47 69.0499 250.2C67.7599 250.09 66.3999 249.93 65.3599 249.16C64.0599 248.2 63.5499 246.48 63.4399 244.87C62.7999 235.66 62.8899 226.33 62.9099 217.1C62.9199 213.56 62.8799 210.01 62.8499 206.47Z" fill="#111112"/>
<path d="M68.1399 201.47C68.0999 196.07 68.1099 190.67 68.4099 185.33C68.4099 185.32 68.4099 185.3 68.4099 185.29C68.4199 185.18 68.4399 185.07 68.4699 184.97C68.9999 182.74 71.9099 182.05 73.8599 181.83C76.6999 181.51 79.5599 181.51 82.4099 181.51C100.62 181.5 118.83 181.67 137.03 181.36C142.28 181.27 147.53 181.18 152.78 181.09C156.42 181.03 163.45 180.37 165.27 184.52C165.81 185.74 165.78 187.13 165.74 188.47C165.29 205.18 165.16 221.88 165.07 238.59C165.06 239.99 165.01 241.51 164.12 242.59C161.67 245.55 154.99 245.09 151.59 245.21C138.16 245.65 124.73 244.81 111.31 245.23C102.12 245.52 92.9299 245.97 83.7299 245.72C80.5999 245.64 77.4599 245.47 74.3399 245.2C73.0499 245.09 71.6899 244.93 70.6499 244.16C69.3499 243.2 68.8399 241.48 68.7299 239.87C68.0899 230.66 68.1799 221.33 68.1999 212.1C68.2099 208.56 68.1599 205.01 68.1399 201.47Z" fill="#F5F7FC"/>
<path d="M69.6398 201.47C69.6198 198.77 69.6098 196.07 69.6498 193.38C69.6798 190.82 69.5498 188.11 69.8998 185.57C70.0898 184.17 71.8798 183.68 73.1798 183.43C75.4098 183 77.7698 183.03 80.0398 183.01C90.7598 182.91 101.49 183.05 112.22 183.04C122.96 183.03 133.69 182.91 144.43 182.72C148.61 182.65 152.82 182.42 157 182.51C159.99 182.57 163.97 182.95 164.26 186.66C164.46 189.21 164.18 191.85 164.12 194.41C164.06 197.14 164 199.87 163.96 202.6C163.87 207.98 163.8 213.35 163.74 218.73C163.69 224.11 163.65 229.48 163.62 234.86C163.61 236.1 163.61 237.34 163.6 238.58C163.59 239.63 163.64 240.87 162.92 241.72C161.96 242.83 160.19 243.17 158.82 243.38C155.11 243.96 151.14 243.74 147.39 243.8C142 243.88 136.61 243.8 131.23 243.71C120.48 243.54 109.77 243.82 99.0298 244.12C93.6898 244.27 88.3498 244.35 83.0198 244.18C80.2998 244.1 77.5798 243.95 74.8598 243.72C73.8798 243.64 72.8098 243.6 71.9298 243.14C70.9498 242.64 70.5498 241.59 70.3598 240.56C69.8998 238.14 69.9998 235.49 69.9198 233.03C69.8198 230.35 69.7698 227.66 69.7498 224.98C69.6998 219.71 69.7598 214.45 69.7398 209.18C69.6898 206.62 69.6598 204.04 69.6398 201.47C69.6298 199.54 66.6298 199.54 66.6398 201.47C66.7298 212.8 66.4498 224.16 66.9798 235.48C67.0898 237.87 66.9498 240.56 67.8698 242.81C68.8198 245.12 70.7698 246.23 73.1698 246.55C78.6698 247.29 84.3498 247.28 89.8898 247.27C101.35 247.24 112.78 246.5 124.24 246.61C134.8 246.71 145.37 247.04 155.92 246.62C159.3 246.48 164.02 246.09 165.83 242.71C166.94 240.63 166.58 237.87 166.59 235.6C166.61 232.7 166.62 229.81 166.65 226.91C166.74 215.41 166.87 203.92 167.15 192.42C167.25 188.12 168.07 182.87 163.4 180.7C160.26 179.24 156.62 179.48 153.25 179.56C141.97 179.84 130.69 179.97 119.41 180.01C107.9 180.06 96.3898 180 84.8898 180C82.0798 180 79.2698 179.96 76.4598 180.11C74.4198 180.22 72.2798 180.35 70.3698 181.13C68.6398 181.84 67.1898 183.15 66.9298 185.09C66.5898 187.72 66.6798 190.48 66.6398 193.13C66.5998 195.91 66.6098 198.69 66.6298 201.47C66.6498 203.4 69.6498 203.4 69.6398 201.47Z" fill="#613DE4"/>
<path d="M119.51 206.082C122.986 207.386 125.903 211.221 125.474 215.284C125.093 218.93 122.2 221.867 118.807 222.272C113.533 222.905 107.033 218.284 108.747 212.031C110.068 207.272 115.128 204.601 119.51 206.082C121.045 206.601 121.7 204.031 120.176 203.525C115.247 201.854 109.747 204.297 107.235 209.094C105.247 212.879 105.687 217.335 108.354 220.588C110.711 223.474 114.509 225.12 118.093 224.993C122.51 224.841 126.403 221.765 127.641 217.196C129.236 211.31 125.296 205.449 120.164 203.525C118.652 202.942 117.998 205.512 119.51 206.082Z" fill="#111112"/>
<path d="M134.837 222.814C129.512 229.608 120.53 233.321 112.073 230.676C104.273 228.237 98.0217 221.139 98.5823 212.743C99.1185 204.881 105.029 197.94 112.682 196.096C120.579 194.191 129.816 197.115 133.692 204.553C134.825 206.725 135.422 209.164 135.434 211.602C135.447 213.556 135.325 216.055 133.96 217.596C131.986 219.817 129.487 217.705 128.72 215.57C127.757 212.913 128.269 209.782 128.902 207.113C129.28 205.524 126.806 204.832 126.441 206.434C125.368 211.008 124.722 217.985 129.78 220.569C131.827 221.612 134.24 221.042 135.776 219.392C137.275 217.79 137.75 215.534 137.933 213.422C138.371 208.29 136.653 203.145 133.143 199.348C129.926 195.865 125.368 193.839 120.713 193.208C110.976 191.898 101.58 196.848 97.6927 205.936C95.8647 210.195 95.4016 215.109 96.8762 219.55C98.4117 224.185 101.775 228.031 105.894 230.615C116.119 237.022 129.366 233.952 136.665 224.621C137.652 223.335 135.849 221.527 134.837 222.814Z" fill="#111112"/>
<defs>
<clipPath id="clip0_2187_31027">
<rect width="76" height="76" fill="white" transform="translate(232 256.114)"/>
</clipPath>
</defs>
</svg>
