<svg width="540" height="540" viewBox="0 0 540 540" fill="none" xmlns="http://www.w3.org/2000/svg">
<path d="M339.04 475.65C308.89 476.74 278.72 477.33 248.55 477.81C219.49 478.27 190.44 480.21 161.4 478.08C160.39 478.01 159.3 477.9 158.52 477.25C157.52 476.42 157.33 474.98 157.21 473.69C154.81 446.51 155.1 419.18 154.38 391.93C154.37 391.66 154.37 391.38 154.36 391.11C154.36 388.8 154.12 386.5 154.09 384.21C153.69 356.66 153.86 329.1 154.11 301.55C154.35 274.15 155 246.71 154.59 219.32C154.2 192.66 154.94 166.02 154.55 139.37C154.42 130.5 153.94 121.63 154.24 112.76C154.34 109.86 154.16 106.3 156.42 104.11C158.32 102.28 161.26 102.19 163.9 102.21C191.62 102.43 219.34 102.65 247.05 102.87C281.78 103.15 316.52 103.05 351.24 104.08C353.35 104.14 355.83 104.42 356.88 106.25C357.41 107.17 357.44 108.29 357.44 109.35C357.65 145.1 355.85 180.84 356.13 216.58C356.42 253.51 356.69 290.45 356.96 327.38C357.32 374.76 357.84 422.12 357.57 469.5C357.56 470.83 357.52 472.27 356.72 473.34C355.63 474.79 353.58 475.02 351.77 475.12C347.53 475.31 343.29 475.5 339.04 475.65Z" fill="#111112"/>
<path d="M347.87 467.86C317.72 468.95 287.55 469.54 257.38 470.02C228.32 470.48 199.27 472.42 170.23 470.29C169.22 470.22 168.13 470.11 167.35 469.46C166.35 468.63 166.16 467.19 166.04 465.9C163.64 438.72 163.93 411.39 163.21 384.14C163.2 383.87 163.2 383.59 163.19 383.32C163.19 381.01 162.95 378.71 162.92 376.42C162.52 348.87 162.69 321.31 162.94 293.76C163.18 266.36 163.83 238.92 163.42 211.53C163.03 184.87 163.77 158.23 163.38 131.58C163.25 122.71 162.77 113.84 163.07 104.97C163.17 102.07 162.99 98.5099 165.25 96.3199C167.15 94.4899 170.09 94.3999 172.73 94.4199C200.45 94.6399 228.17 94.8599 255.88 95.0799C290.61 95.3599 325.35 95.2599 360.07 96.2899C362.18 96.3499 364.66 96.6299 365.71 98.4599C366.24 99.3799 366.27 100.5 366.27 101.56C366.48 137.31 364.68 173.05 364.96 208.79C365.25 245.72 365.52 282.66 365.79 319.59C366.15 366.97 366.67 414.33 366.4 461.71C366.39 463.04 366.35 464.48 365.55 465.55C364.46 467 362.41 467.23 360.6 467.33C356.36 467.52 352.12 467.71 347.87 467.86Z" fill="#FBFCFE"/>
<path d="M347.87 466.36C310.76 467.7 273.63 467.94 236.52 469.03C217.91 469.57 199.27 470.18 180.65 469.39C178.42 469.29 176.18 469.18 173.95 469.04C172.24 468.93 168.66 469.39 167.85 467.52C167.06 465.72 167.29 463.02 167.14 461.07C166.96 458.72 166.8 456.37 166.65 454.02C166.08 444.86 165.75 435.69 165.53 426.52C164.63 389.65 164.03 352.79 164.26 315.9C164.49 278.73 165.13 241.58 164.84 204.4C164.7 185.84 165 167.29 165 148.73C165 139.55 164.88 130.37 164.64 121.2C164.52 116.52 164.42 111.84 164.52 107.16C164.59 103.98 163.87 98.64 167.14 96.77C168.72 95.86 170.7 95.89 172.47 95.89C174.81 95.89 177.16 95.93 179.5 95.94C184.24 95.98 188.99 96.02 193.73 96.05C202.97 96.12 212.21 96.2 221.45 96.27C240.06 96.42 258.66 96.58 277.27 96.68C295.89 96.78 314.5 96.86 333.12 97.15C342.26 97.29 351.46 97.26 360.59 97.77C362.23 97.86 364.32 98.07 364.72 100C365.2 102.35 364.82 105.13 364.82 107.52C364.82 112.14 364.79 116.77 364.74 121.39C364.53 140.01 363.99 158.63 363.68 177.25C363.37 195.98 363.54 214.71 363.68 233.45C363.96 270.63 364.22 307.8 364.53 344.98C364.83 382.13 365.13 419.28 364.96 456.43C364.95 458.53 365.13 460.73 364.9 462.82C364.67 464.97 363.35 465.54 361.38 465.72C356.89 466.16 352.35 466.2 347.87 466.36C345.95 466.43 345.94 469.43 347.87 469.36C352.51 469.19 357.24 469.2 361.86 468.69C365.36 468.3 367.61 466.48 367.87 462.84C368.2 458.26 367.94 453.56 367.96 448.97C367.97 444.23 367.98 439.5 367.98 434.76C367.98 415.56 367.88 396.36 367.75 377.17C367.48 338.76 367.16 300.34 366.87 261.93C366.73 242.84 366.51 223.74 366.44 204.65C366.37 185.4 366.86 166.16 367.27 146.91C367.47 137.29 367.66 127.66 367.74 118.04C367.78 113.29 367.8 108.54 367.78 103.79C367.77 100.28 367.82 96.64 363.91 95.32C362.33 94.79 360.59 94.79 358.94 94.74C356.44 94.67 353.94 94.6 351.45 94.54C346.58 94.42 341.71 94.32 336.84 94.24C327.35 94.08 317.85 93.97 308.36 93.89C269.89 93.58 231.43 93.37 192.96 93.07C188.22 93.03 183.47 92.99 178.73 92.96C174.89 92.93 170.37 92.27 166.71 93.69C163.36 94.99 162.03 98.09 161.72 101.47C161.32 105.8 161.44 110.24 161.5 114.58C161.75 133.7 162.02 152.8 161.9 171.93C161.78 190.99 162.04 210.04 162.05 229.1C162.07 248.29 161.72 267.48 161.51 286.67C161.3 305.82 161.16 324.97 161.19 344.12C161.21 362.93 161.74 381.71 162.06 400.52C162.39 419.61 162.58 438.71 163.91 457.77C164.07 460 164.24 462.22 164.43 464.45C164.58 466.27 164.58 468.32 165.69 469.86C166.6 471.12 168 471.58 169.48 471.75C171.83 472.03 174.22 472.1 176.58 472.22C186.13 472.74 195.69 472.86 205.25 472.78C224.38 472.62 243.51 471.78 262.64 471.47C281.71 471.16 300.78 470.79 319.85 470.28C329.2 470.03 338.54 469.74 347.89 469.4C349.8 469.29 349.81 466.29 347.87 466.36Z" fill="#613DE4"/>
<rect x="163" y="124" width="203" height="302" fill="#613DE4"/>
<rect opacity="0.2" x="169" y="357" width="192" height="49" rx="4" fill="#FBFCFE"/>
<rect opacity="0.2" x="169" y="296" width="192" height="49" rx="4" fill="#FBFCFE"/>
<rect opacity="0.2" x="169" y="235" width="192" height="49" rx="4" fill="#FBFCFE"/>
<rect opacity="0.2" x="169" y="174" width="192" height="49" rx="4" fill="#FBFCFE"/>
<rect opacity="0.2" x="169" y="131" width="192" height="31" rx="4" fill="#FBFCFE"/>
<path d="M163.19 123.51H366.48" stroke="#111112" stroke-width="3" stroke-miterlimit="10"/>
<path d="M164.85 425.83H366.15" stroke="#111112" stroke-width="3" stroke-miterlimit="10"/>
<path d="M256.13 447.38C255.84 445.31 256.13 442.97 257.4 441.26C258.47 439.82 260.2 439.07 261.88 438.61C265.34 437.67 269.91 437.42 272.62 440.21C275.12 442.78 275.55 447.5 274.44 450.78C273.76 452.79 272.06 453.86 270.17 454.6C268.08 455.42 265.8 455.98 263.54 455.76C259.25 455.34 256.78 451.3 256.13 447.38C255.81 445.48 252.92 446.29 253.24 448.18C253.99 452.68 257 457.36 261.67 458.48C264.5 459.16 267.51 458.71 270.22 457.77C272.64 456.93 275.06 455.75 276.47 453.51C277.8 451.38 278.08 448.59 277.93 446.13C277.78 443.71 277.15 441.22 275.7 439.23C272.55 434.91 266.91 434.42 262.04 435.48C259.36 436.06 256.67 437.23 255 439.48C253.13 442 252.82 445.16 253.24 448.17C253.35 448.98 254.38 449.4 255.09 449.22C255.95 449 256.24 448.18 256.13 447.38Z" fill="#111112"/>
<path d="M213.45 423.17C205.49 419.05 197.56 414 192.09 406.75C186.52 399.35 183.6 388.95 187.84 380.21C191.54 372.6 199.54 368.58 207.48 366.89C216.99 364.87 227.03 365.98 236.48 367.76C246.72 369.69 256.74 372.58 266.97 374.52C276.18 376.26 285.85 377.49 295.14 375.72C303.05 374.21 310.27 370.26 315.15 363.76C321.05 355.9 323.01 345.58 324.79 336.14C325.73 331.15 326.62 326.13 328 321.24C329.32 316.55 331.2 311.82 334.71 308.33C341.2 301.88 351.52 301.27 358.83 306.69C360.53 307.95 362 309.52 363.19 311.26C364.28 312.84 366.88 311.34 365.78 309.75C360.57 302.16 351.12 298.21 342.11 300.7C337.44 301.99 333.37 304.83 330.47 308.69C327.43 312.74 325.79 317.68 324.56 322.54C321.96 332.83 321.1 343.57 317.24 353.53C315.56 357.87 313.28 361.96 309.92 365.22C307.03 368.02 303.48 370.1 299.68 371.42C290.75 374.53 280.95 373.81 271.78 372.33C261.12 370.62 250.73 367.61 240.16 365.44C230.1 363.38 219.61 361.95 209.37 363.52C200.99 364.8 192.5 368.36 187.31 375.33C181.38 383.29 181.84 394.23 186.11 402.82C190.32 411.29 197.87 417.57 205.82 422.39C207.81 423.6 209.86 424.72 211.92 425.79C213.65 426.64 215.17 424.06 213.45 423.17Z" fill="#111112"/>
<path d="M277.53 124.12C279.05 128.45 277.94 132.85 275.31 136.51C272.52 140.4 268.27 142.95 263.8 144.48C253.37 148.05 242.05 147.14 231.22 147.71C224.34 148.07 217.52 149.57 211.17 152.28C204.97 154.92 199.1 158.89 195.37 164.61C191.29 170.87 190.52 178.97 193.14 185.94C196.44 194.72 203.61 201.24 208.79 208.86C214.11 216.7 218.19 225.77 218.53 235.37C218.82 243.47 216.61 252.05 210.98 258.1C205.13 264.39 196.05 267.47 187.58 267.13C178.73 266.78 170.65 262.34 165.93 254.79C165.12 253.49 164.41 252.13 163.79 250.74C163.01 248.98 160.42 250.5 161.2 252.25C164.67 260.06 171.11 266.18 179.32 268.75C187.87 271.42 197.48 270.21 205.34 266.05C213.13 261.92 218.34 254.75 220.43 246.23C222.63 237.24 221.4 227.84 217.89 219.34C215.96 214.66 213.44 210.25 210.52 206.11C207.74 202.18 204.55 198.57 201.67 194.72C198.88 191 196.29 186.97 195.18 182.4C194.28 178.7 194.42 174.72 195.57 171.09C197.64 164.57 203.03 159.82 208.9 156.68C215 153.41 221.95 151.52 228.84 150.88C239.79 149.87 250.92 151.03 261.68 148.24C270.56 145.94 279.82 139.93 281.12 130.09C281.42 127.8 281.18 125.5 280.41 123.32C279.79 121.51 276.89 122.29 277.53 124.12Z" fill="#111112"/>
<path d="M287.63 106.25C286.95 106.73 286.15 107.04 285.51 107.59C283.09 109.66 286.28 111.6 288.3 111.44C289.74 111.33 291.33 110.8 292.01 109.4C292.37 108.66 292.36 107.72 291.9 107.04C291.47 106.41 290.69 106.07 289.93 106.01C288.66 105.91 287.1 106.38 286.27 107.39" fill="#111112"/>
<path d="M238.42 110.7C250.75 110.68 263.09 110.66 275.42 110.63C277.35 110.63 277.35 107.63 275.42 107.63C263.09 107.65 250.75 107.67 238.42 107.7C236.49 107.71 236.48 110.71 238.42 110.7Z" fill="#111112"/>
<path d="M262.03 165.27C262.37 165.13 262.72 165.02 263.07 164.94C271.64 162.91 280.45 162.78 289.21 162.34C298.36 161.89 307.52 161.75 316.67 161.8C317.86 161.81 319.05 161.81 320.24 161.83C338.54 162.01 356.82 162.83 375.12 163.21C393.14 163.58 411.08 163.06 429.09 162.43C431.34 162.35 433.97 162.44 435.31 164.25C436.22 165.47 436.23 167.12 436.2 168.65C436.2 177.57 435.72 186.48 435.74 195.4C435.76 204.59 435.97 213.79 436.48 222.96C436.52 223.69 436.56 224.43 436.61 225.16C437.01 231.63 437.53 238.12 437.21 244.6C437.11 246.62 436.87 248.79 435.55 250.31C433.94 252.17 431.24 252.54 428.8 252.76C416.04 253.9 403.24 254.32 390.44 254.71C372.16 255.26 353.87 255.22 335.59 254.98C326.37 254.86 317.14 254.68 307.92 254.47C302.89 254.36 297.86 254.09 292.82 253.95C290.54 253.89 288.26 253.82 285.99 253.91C283.96 253.99 281.55 253.43 279.67 254.39C279.07 254.7 278.55 255.15 278.07 255.63C274.19 259.41 271.48 264.25 268.72 268.86C267.74 270.49 266.64 272.5 264.49 272.56C262.73 272.61 261.31 271.18 260.81 269.59C260.18 267.56 260.6 265.46 260.55 263.39C260.49 260.99 260.41 258.59 260.35 256.19C259.9 237.97 260.03 219.79 260.26 201.59C260.33 195.98 260.24 190.37 260.14 184.76C260.05 179.83 259.96 174.91 259.79 169.97C259.75 168.77 259.73 167.48 260.42 166.5C260.81 165.92 261.39 165.53 262.03 165.27Z" fill="#111112"/>
<path d="M265.88 157.93C266.22 157.79 266.57 157.68 266.92 157.6C275.49 155.57 284.3 155.44 293.06 155C302.21 154.55 311.37 154.41 320.52 154.46C321.71 154.47 322.9 154.47 324.09 154.49C342.39 154.67 360.67 155.49 378.97 155.87C396.99 156.24 414.93 155.72 432.94 155.09C435.19 155.01 437.82 155.1 439.16 156.91C440.07 158.13 440.08 159.78 440.05 161.31C440.05 170.23 439.57 179.14 439.59 188.06C439.61 197.25 439.82 206.45 440.33 215.62C440.37 216.35 440.41 217.09 440.46 217.82C440.86 224.29 441.38 230.78 441.06 237.26C440.96 239.28 440.72 241.45 439.4 242.97C437.79 244.83 435.09 245.2 432.65 245.42C419.89 246.56 407.09 246.98 394.29 247.37C376.01 247.92 357.72 247.88 339.44 247.64C330.22 247.52 320.99 247.34 311.77 247.13C306.74 247.02 301.71 246.75 296.67 246.61C294.39 246.55 292.11 246.48 289.84 246.57C287.81 246.65 285.4 246.09 283.52 247.05C282.92 247.36 282.4 247.81 281.92 248.29C278.04 252.07 275.33 256.91 272.57 261.52C271.59 263.15 270.49 265.16 268.34 265.22C266.58 265.27 265.16 263.84 264.66 262.25C264.03 260.22 264.45 258.12 264.4 256.05C264.34 253.65 264.26 251.25 264.2 248.85C263.75 230.63 263.88 212.45 264.11 194.25C264.18 188.64 264.09 183.03 263.99 177.42C263.9 172.49 263.81 167.57 263.64 162.63C263.6 161.43 263.58 160.14 264.27 159.16C264.65 158.59 265.23 158.2 265.88 157.93Z" fill="#F5F7FC"/>
<path d="M266.28 159.38C268.23 158.64 270.44 158.37 272.49 158.04C274.72 157.69 276.96 157.45 279.21 157.26C283.58 156.9 287.96 156.75 292.34 156.54C301.48 156.1 310.63 155.92 319.78 155.96C338.1 156.03 356.41 156.83 374.72 157.27C393.14 157.71 411.55 157.32 429.96 156.69C432.78 156.59 438.12 155.53 438.51 159.57C438.71 161.68 438.53 163.89 438.5 166.01C438.46 168.32 438.41 170.63 438.35 172.95C438.11 182.09 438.02 191.22 438.23 200.37C438.44 209.44 439.13 218.48 439.52 227.54C439.62 229.73 439.67 231.91 439.65 234.1C439.63 236.07 439.7 238.17 439.19 240.08C438.12 244.09 433.28 243.87 429.94 244.15C411.72 245.64 393.37 246.06 375.09 246.25C356.62 246.44 338.14 246.19 319.67 245.81C310.62 245.62 301.56 245.06 292.52 245.03C290.49 245.02 288.45 244.97 286.42 244.98C284.46 244.99 282.79 245.5 281.3 246.81C278.4 249.36 276.16 252.74 274.13 256C273.1 257.66 272.11 259.35 271.1 261.03C270.46 262.1 269.55 263.89 268.04 263.71C266.16 263.49 265.8 261.07 265.79 259.6C265.77 257.45 265.87 255.31 265.81 253.16C265.55 244.03 265.41 234.89 265.39 225.75C265.34 207.33 265.74 188.92 265.34 170.5C265.29 168.36 265.24 166.23 265.18 164.09C265.12 162.22 264.64 160.13 266.64 159.22C268.39 158.42 266.87 155.83 265.13 156.63C260.98 158.52 262.18 163.86 262.28 167.54C262.4 172.31 262.48 177.08 262.56 181.85C262.71 191.44 262.51 201.02 262.44 210.6C262.37 220.2 262.37 229.79 262.51 239.39C262.58 244.06 262.69 248.72 262.82 253.39C262.88 255.6 262.72 257.83 262.81 260.03C262.89 261.91 263.36 263.79 264.72 265.16C265.94 266.39 267.71 266.98 269.42 266.56C271.05 266.15 272.2 264.87 273.1 263.51C275.3 260.18 277.11 256.63 279.48 253.4C280.66 251.79 282 250.01 283.59 248.78C285.2 247.53 287.39 248.05 289.27 248.06C293.94 248.09 298.59 248.14 303.26 248.32C322.29 249.07 341.36 249.25 360.4 249.28C379.58 249.31 398.78 248.96 417.93 247.93C422.68 247.67 427.43 247.36 432.18 246.94C435.73 246.63 439.8 246.05 441.52 242.45C442.3 240.82 442.49 239.01 442.58 237.23C442.71 234.8 442.7 232.37 442.63 229.94C442.51 225.37 442.14 220.81 441.88 216.25C441.34 206.77 441.11 197.27 441.1 187.78C441.1 182.99 441.23 178.2 441.36 173.41C441.42 171.02 441.48 168.62 441.52 166.23C441.56 164.02 441.71 161.74 441.53 159.54C441.38 157.71 440.78 156 439.25 154.88C437.89 153.89 436.17 153.6 434.52 153.55C429.98 153.4 425.37 153.82 420.83 153.96C411.35 154.25 401.86 154.45 392.37 154.47C373.1 154.49 353.85 153.54 334.59 153.13C325.17 152.93 315.74 152.85 306.31 153.04C296.98 153.22 287.57 153.48 278.27 154.33C276.15 154.52 274.04 154.77 271.94 155.1C269.81 155.43 267.52 155.71 265.49 156.47C263.69 157.16 264.46 160.06 266.28 159.38Z" fill="#613DE4"/>
<path d="M313 172H400V228L395.5 230.5L385.5 231L356 232L316.5 233L313 228V172Z" fill="#FACC15"/>
<path d="M380.5 181.75C371.52 187.86 363.31 195.01 355.34 202.38C355.27 202.44 355.2 202.5 355.13 202.58C354.66 202.96 354.64 203.02 355.04 202.74C355.14 202.68 355.22 202.63 355.32 202.57C355.17 202.45 355.04 202.34 354.89 202.21C354.56 201.72 353.84 201.32 353.39 200.94C352.26 199.98 351.11 199.02 349.98 198.07C347.81 196.26 345.59 194.48 343.34 192.78C338.88 189.42 334.27 186.27 329.79 182.95C327.2 181.04 324.71 179.03 322.24 176.97C320.05 175.15 317.83 173.26 316.23 170.87C314.91 168.91 311.71 170.76 313.04 172.73C316.1 177.28 320.8 180.69 325.09 183.99C329.91 187.71 334.95 191.12 339.84 194.73C342.34 196.58 344.77 198.49 347.15 200.47C348.3 201.42 349.43 202.38 350.58 203.34C351.65 204.24 352.72 205.41 353.96 206.09C356.4 207.43 358.51 204.5 360.08 203.05C362.25 201.07 364.43 199.11 366.65 197.18C371.68 192.82 376.89 188.68 382.4 184.93C384.32 183.61 382.47 180.4 380.5 181.75Z" fill="#111112"/>
<path d="M312.74 173.25C336.48 172.76 360.24 173.14 383.98 172.62C389.34 172.51 394.71 172.37 400.06 172C402.43 171.84 402.44 168.14 400.06 168.3C389.29 169.03 378.46 169.05 367.67 169.15C354.72 169.27 341.78 169.3 328.83 169.36C323.46 169.38 318.1 169.42 312.73 169.53C310.36 169.6 310.35 173.3 312.74 173.25Z" fill="#111112"/>
<path d="M311.04 171.84C311.52 181.14 311.91 190.47 311.73 199.79C311.63 204.45 311.34 209.11 311.22 213.78C311.17 216.01 311.12 218.24 311.04 220.46C310.95 222.65 310.57 224.93 310.81 227.13C311.14 230.35 312.73 234.78 316.37 235.37C318.08 235.64 319.92 235.27 321.62 235.1C324.05 234.85 326.46 234.62 328.89 234.4C338.16 233.57 347.41 233.45 356.71 233.41C367.22 233.39 377.74 233.32 388.25 233.03C390.63 232.97 390.63 229.27 388.25 229.33C379.35 229.58 370.46 229.66 361.56 229.7C352.79 229.74 344 229.61 335.25 230.19C330.9 230.49 326.56 230.89 322.21 231.32C321.19 231.42 320.16 231.52 319.14 231.62C318.45 231.68 317.62 231.88 316.93 231.73C315.45 231.38 314.82 228.86 314.56 227.55C314.19 225.63 314.56 223.59 314.66 221.66C314.77 219.43 314.82 217.2 314.87 214.98C314.97 210.52 315.22 206.06 315.35 201.6C315.65 191.67 315.23 181.75 314.71 171.83C314.61 169.48 310.92 169.47 311.04 171.84Z" fill="#111112"/>
<path d="M317.13 232.78C326.27 221.14 335.42 209.48 344.56 197.84C346.01 195.99 343.41 193.35 341.95 195.23C332.81 206.87 323.66 218.53 314.52 230.17C313.06 232.01 315.66 234.65 317.13 232.78Z" fill="#111112"/>
<path d="M370.9 196.67C378.69 207.99 386.49 219.31 394.27 230.63C395.61 232.58 398.82 230.73 397.46 228.77C389.67 217.45 381.87 206.13 374.09 194.81C372.76 192.85 369.55 194.7 370.9 196.67Z" fill="#111112"/>
<path d="M394.21 232.37C397.22 232.14 400.59 231.61 402.27 228.75C403.44 226.77 402.9 224.49 402.71 222.33C402.39 218.57 402.24 214.79 402.11 211.02C401.78 201.46 401.68 191.87 401.75 182.3C401.79 178.46 401.81 174.6 402.05 170.75C402.2 168.37 398.49 168.38 398.35 170.75C397.91 178.07 398 185.45 398.05 192.78C398.11 201.37 398.25 209.97 398.74 218.54C398.84 220.2 398.95 221.87 399.12 223.52C399.24 224.73 399.67 226.22 398.81 227.23C397.74 228.49 395.7 228.56 394.19 228.67C391.86 228.86 391.83 232.55 394.21 232.37Z" fill="#111112"/>
<path d="M430.49 85.6399C421.51 84.5299 412.17 87.0099 405.22 93.3899C400.19 97.9999 396.37 104.41 395.7 111.46C395.11 117.63 397.01 123.95 400.53 128.89C409.09 140.91 425.23 143.69 437.94 138.49C439.87 137.7 441.74 136.73 443.5 135.56C450.76 130.77 456.13 122.95 456.71 114.13C457.23 106.29 454.03 98.3599 448.05 93.2699C443 89.0099 436.83 86.4299 430.49 85.6399Z" fill="#111112"/>
<path d="M432.49 81.6399C423.51 80.5299 414.17 83.0099 407.22 89.3899C402.19 93.9999 398.37 100.41 397.7 107.46C397.11 113.63 399.01 119.95 402.53 124.89C411.09 136.91 427.23 139.69 439.94 134.49C441.87 133.7 443.74 132.73 445.5 131.56C452.76 126.77 458.13 118.95 458.71 110.13C459.23 102.29 456.03 94.3599 450.05 89.2699C445 85.0099 438.83 82.4299 432.49 81.6399Z" fill="#EF4444"/>
<path d="M432.49 80.1399C419.24 78.5799 405.97 84.9099 399.53 96.7499C396.34 102.61 395.3 109.3 396.81 115.81C398.25 122 401.85 127.64 406.82 131.59C415.6 138.59 427.87 140.21 438.42 136.64C450.26 132.64 460.01 121.83 460.25 108.95C460.38 101.93 457.69 94.8799 452.81 89.8199C447.48 84.2999 440.01 81.1199 432.49 80.1399C430.58 79.8899 430.6 82.8899 432.49 83.1399C438.62 83.9399 444.62 86.5099 449.27 90.5999C453.58 94.3799 456.35 99.7699 457.07 105.45C458.55 117.2 450.82 127.92 440.4 132.66C431.34 136.79 420.17 136.48 411.6 131.3C401.56 125.24 396.46 112.74 400.59 101.56C402.86 95.4099 407.58 90.0799 413.23 86.8199C419.06 83.4699 425.84 82.3499 432.47 83.1399C434.4 83.3699 434.38 80.3699 432.49 80.1399Z" fill="#111112"/>
<path d="M416.56 107.74C419.49 105.81 422.23 103.56 424.72 101.09C426.78 99.04 428.44 96.46 431.11 95.14C430.38 94.84 429.64 94.54 428.91 94.24C430.55 104.06 430.94 114.06 430.13 123.99C429.97 125.91 432.97 125.9 433.13 123.99C433.96 113.79 433.49 103.54 431.8 93.45C431.63 92.43 430.38 92.17 429.6 92.55C426.91 93.88 425.14 96.33 423.12 98.45C420.72 100.97 417.97 103.24 415.06 105.15C413.44 106.2 414.94 108.8 416.56 107.74Z" fill="#111112"/>
<path d="M263.088 35.7312C262.94 35.1838 262.838 34.6207 262.783 34.0499C262.134 27.1606 266.865 20.8187 273.504 19.1374C279.072 17.722 286.071 19.9272 289.496 24.6582C292.42 28.7011 292.069 34.2767 289.801 38.5385C286.462 44.8022 279.103 47.4297 272.417 45.2245C268.218 43.8404 264.253 40.1259 263.088 35.7312Z" fill="#111112"/>
<path d="M261.524 34.1672C261.376 33.6198 261.274 33.0568 261.219 32.4859C260.57 25.5966 265.301 19.2547 271.94 17.5735C277.508 16.1581 284.507 18.3633 287.932 23.0943C290.856 27.1371 290.505 32.7127 288.237 36.9745C284.898 43.2382 277.539 45.8657 270.853 43.6605C266.654 42.2764 262.689 38.562 261.524 34.1672Z" fill="#F5F7FC"/>
<path d="M262.658 33.8544C261.391 28.7402 263.964 23.2429 268.304 20.4277C272.707 17.5813 278.431 17.7377 282.951 20.2792C285.25 21.5694 287.275 23.5244 288.19 26.0424C289.144 28.6699 289.011 31.5554 288.151 34.1907C286.524 39.1719 282.036 42.7925 276.789 43.207C270.681 43.684 264.347 39.9148 262.658 33.8544C262.251 32.3999 259.992 33.0177 260.398 34.48C262.158 40.7672 268.241 45.1541 274.638 45.5686C280.683 45.9596 286.626 42.73 289.386 37.303C292.421 31.3286 291.67 23.931 286.212 19.6536C281.387 15.8688 274.505 14.8444 268.898 17.4327C262.596 20.3417 258.701 27.6611 260.398 34.48C260.758 35.9423 263.018 35.3246 262.658 33.8544Z" fill="#613DE4"/>
<path d="M270.204 31.1644C271.338 32.791 272.378 34.4723 273.324 36.2161C273.496 36.5367 273.997 36.6149 274.247 36.3334C277.383 32.8066 280.667 29.4128 284.1 26.1754C284.648 25.6593 283.819 24.8304 283.271 25.3465C279.838 28.5839 276.554 31.9777 273.418 35.5045C273.723 35.5436 274.036 35.5827 274.341 35.6218C273.395 33.8779 272.355 32.1967 271.221 30.5701C270.791 29.9602 269.766 30.5467 270.204 31.1644Z" fill="#111112"/>
<path d="M410.931 333.117C410.742 332.42 410.613 331.704 410.543 330.977C409.717 322.207 415.739 314.134 424.191 311.994C431.278 310.192 440.187 312.999 444.547 319.022C448.27 324.168 447.822 331.266 444.936 336.691C440.685 344.664 431.318 348.009 422.807 345.202C417.461 343.44 412.414 338.712 410.931 333.117Z" fill="#111112"/>
<path d="M408.941 331.126C408.751 330.43 408.622 329.713 408.552 328.986C407.726 320.216 413.749 312.143 422.2 310.003C429.287 308.201 438.197 311.008 442.557 317.031C446.28 322.177 445.832 329.275 442.945 334.7C438.694 342.673 429.327 346.018 420.816 343.211C415.471 341.449 410.424 336.721 408.941 331.126Z" fill="#F5F7FC"/>
<path d="M410.384 330.728C408.771 324.218 412.046 317.22 417.571 313.636C423.175 310.013 430.462 310.212 436.215 313.447C439.142 315.09 441.72 317.578 442.885 320.784C444.099 324.128 443.93 327.801 442.835 331.156C440.765 337.497 435.051 342.106 428.371 342.634C420.597 343.241 412.534 338.443 410.384 330.728C409.866 328.877 406.989 329.663 407.507 331.524C409.747 339.528 417.491 345.112 425.634 345.64C433.329 346.138 440.894 342.026 444.408 335.118C448.27 327.513 447.315 318.096 440.366 312.651C434.225 307.833 425.465 306.529 418.327 309.824C410.304 313.527 405.347 322.844 407.507 331.524C407.965 333.386 410.842 332.6 410.384 330.728Z" fill="#613DE4"/>
<path d="M419.99 327.304C421.433 329.374 422.757 331.514 423.962 333.734C424.181 334.142 424.818 334.242 425.136 333.884C429.128 329.394 433.309 325.074 437.679 320.953C438.376 320.296 437.32 319.241 436.624 319.898C432.254 324.019 428.073 328.339 424.081 332.828C424.469 332.878 424.867 332.928 425.256 332.978C424.051 330.758 422.727 328.618 421.284 326.547C420.736 325.771 419.432 326.517 419.99 327.304Z" fill="#111112"/>
<path d="M78.3064 219.735C78.1954 219.327 78.1195 218.906 78.0786 218.48C77.5939 213.335 81.1271 208.599 86.0851 207.343C90.2431 206.286 95.4698 207.933 98.0277 211.466C100.212 214.485 99.949 218.649 98.2555 221.832C95.7618 226.51 90.2665 228.472 85.2734 226.825C82.1373 225.791 79.1765 223.017 78.3064 219.735Z" fill="#111112"/>
<path d="M77.1384 218.567C77.0275 218.159 76.9515 217.738 76.9107 217.312C76.4259 212.167 79.9591 207.431 84.9172 206.175C89.0752 205.118 94.3019 206.765 96.8597 210.298C99.0439 213.317 98.7811 217.481 97.0875 220.664C94.5939 225.342 89.0985 227.304 84.1054 225.657C80.9694 224.623 78.0086 221.849 77.1384 218.567Z" fill="#F5F7FC"/>
<path d="M77.9851 218.334C77.039 214.514 78.9603 210.409 82.2015 208.307C85.4894 206.181 89.7642 206.298 93.1396 208.196C94.8565 209.159 96.3691 210.619 97.0524 212.5C97.7648 214.462 97.6655 216.617 97.0231 218.585C95.8084 222.305 92.4563 225.009 88.5378 225.318C83.9768 225.674 79.2465 222.86 77.9851 218.334C77.6814 217.248 75.9937 217.709 76.2974 218.801C77.6113 223.496 82.1548 226.772 86.9318 227.082C91.446 227.374 95.8844 224.962 97.9459 220.909C100.212 216.447 99.6511 210.923 95.5749 207.728C91.9716 204.902 86.8325 204.137 82.6453 206.07C77.9384 208.242 75.0301 213.709 76.2974 218.801C76.566 219.893 78.2537 219.432 77.9851 218.334Z" fill="#613DE4"/>
<path d="M83.6207 216.325C84.4675 217.539 85.2442 218.795 85.9508 220.097C86.0793 220.337 86.453 220.395 86.6399 220.185C88.9817 217.551 91.4344 215.017 93.9982 212.599C94.4069 212.213 93.7879 211.594 93.3791 211.98C90.8154 214.398 88.3627 216.932 86.0209 219.566C86.2486 219.595 86.4822 219.624 86.71 219.654C86.0033 218.351 85.2266 217.096 84.3798 215.881C84.0587 215.425 83.2936 215.863 83.6207 216.325Z" fill="#111112"/>
<rect x="381" y="93.3585" width="6.1875" height="9" rx="3.09375" transform="rotate(-60 381 93.3585)" fill="#EF4444"/>
<rect x="393" y="71.0938" width="6.1875" height="9" rx="3.09375" transform="rotate(-30 393 71.0938)" fill="#EF4444"/>
<rect x="416" y="61.6309" width="6.1875" height="9" rx="3.09375" transform="rotate(-5.85154 416 61.6309)" fill="#EF4444"/>
<rect x="446.061" y="63" width="6.1875" height="9" rx="3.09375" transform="rotate(34.2183 446.061 63)" fill="#EF4444"/>
<rect x="126" y="122.319" width="6.1875" height="9" rx="3.09375" transform="rotate(-87.9602 126 122.319)" fill="#613DE4"/>
<rect x="126.161" y="97.0271" width="6.1875" height="9" rx="3.09375" transform="rotate(-57.9602 126.161 97.0271)" fill="#613DE4"/>
<rect x="142.039" y="77.885" width="6.1875" height="9" rx="3.09375" transform="rotate(-33.8117 142.039 77.885)" fill="#613DE4"/>
<rect x="169.233" y="65" width="6.1875" height="9" rx="3.09375" transform="rotate(6.25815 169.233 65)" fill="#613DE4"/>
<path d="M201.917 534.776C198.596 534.826 195.236 535.025 191.927 534.748C190.683 534.649 189.561 534.144 189.202 532.731C188.894 531.503 189.003 530.175 189.08 528.918C189.285 525.474 189.054 521.995 188.99 518.551C188.92 514.66 188.933 510.776 189.074 506.892C189.118 505.677 188.997 503.994 189.83 503.043C190.824 501.907 192.703 502.184 193.985 502.233C197.506 502.368 201.02 502.695 204.546 502.766C205.592 502.787 206.836 502.631 207.823 503.107C208.99 503.675 208.932 505.443 208.92 506.622C208.9 508.511 208.708 510.399 208.644 512.288C208.58 514.177 208.548 516.066 208.561 517.948C208.58 520.177 208.67 522.407 208.779 524.629C208.881 526.696 209.086 528.776 209.086 530.843C209.086 532.568 208.599 534.059 206.964 534.514C205.374 534.968 203.553 534.748 201.917 534.776C200.68 534.798 200.68 536.928 201.917 536.907C204.822 536.864 209.029 537.475 210.491 533.896C211.19 532.199 210.997 530.303 210.901 528.499C210.786 526.277 210.657 524.047 210.574 521.825C210.407 517.479 210.439 513.112 210.728 508.766C210.856 506.877 211.074 504.641 210.266 502.887C209.696 501.651 208.593 501.005 207.394 500.792C205.842 500.522 204.232 500.636 202.668 500.572C200.699 500.494 198.737 500.352 196.768 500.238C193.889 500.068 189.163 499.109 187.695 502.787C187.067 504.364 187.156 506.217 187.099 507.907C187.028 510.101 186.99 512.295 187.002 514.489C187.022 518.793 187.349 523.124 187.22 527.427C187.131 530.516 186.451 534.634 189.542 536.275C191.235 537.169 193.415 536.978 195.242 536.992C197.461 537.006 199.686 536.942 201.905 536.914C203.155 536.885 203.161 534.755 201.917 534.776Z" fill="#613DE4"/>
<rect x="190" y="502" width="21" height="32" fill="#613DE4"/>
<path d="M203.539 533.837C200.079 533.885 196.579 534.078 193.132 533.809C191.837 533.712 190.668 533.222 190.294 531.847C189.973 530.652 190.087 529.36 190.167 528.137C190.38 524.786 190.14 521.401 190.073 518.05C190 514.264 190.013 510.484 190.16 506.705C190.207 505.524 190.08 503.887 190.948 502.961C191.984 501.855 193.941 502.125 195.276 502.173C198.944 502.304 202.604 502.622 206.278 502.691C207.366 502.712 208.662 502.56 209.691 503.023C210.906 503.576 210.846 505.296 210.833 506.443C210.813 508.281 210.613 510.118 210.546 511.956C210.479 513.794 210.446 515.632 210.459 517.462C210.479 519.632 210.572 521.801 210.686 523.964C210.793 525.974 211.007 527.999 211.007 530.009C211.007 531.688 210.499 533.139 208.796 533.581C207.139 534.023 205.242 533.809 203.539 533.837C202.25 533.857 202.25 535.93 203.539 535.909C206.565 535.868 210.947 536.462 212.469 532.98C213.197 531.329 212.997 529.484 212.897 527.729C212.777 525.567 212.643 523.397 212.556 521.235C212.383 517.006 212.416 512.758 212.717 508.529C212.85 506.692 213.077 504.515 212.236 502.809C211.641 501.607 210.492 500.978 209.243 500.771C207.627 500.508 205.95 500.619 204.32 500.556C202.27 500.48 200.226 500.342 198.175 500.232C195.176 500.066 190.254 499.133 188.724 502.712C188.069 504.246 188.163 506.049 188.103 507.693C188.029 509.828 187.989 511.963 188.003 514.098C188.023 518.285 188.363 522.499 188.23 526.686C188.136 529.691 187.428 533.698 190.648 535.294C192.411 536.165 194.682 535.978 196.586 535.992C198.897 536.006 201.215 535.944 203.526 535.916C204.828 535.888 204.835 533.816 203.539 533.837Z" fill="#111112"/>
<path d="M198.453 513.104C200.729 511.904 202.585 509.938 203.723 507.518C203.132 507.348 202.54 507.179 201.943 507.003C201.453 514.338 201.498 521.701 202.089 529.024C202.191 530.319 204.098 530.332 203.996 529.024C203.405 521.695 203.36 514.332 203.85 507.003C203.92 506.006 202.49 505.606 202.07 506.487C201.059 508.623 199.496 510.277 197.48 511.342C196.387 511.932 197.353 513.681 198.453 513.104Z" fill="white"/>
<path d="M401.053 416.197C398.146 416.237 395.206 416.399 392.311 416.174C391.223 416.093 390.241 415.685 389.927 414.539C389.657 413.543 389.753 412.466 389.82 411.447C390 408.655 389.798 405.834 389.741 403.041C389.68 399.886 389.691 396.737 389.814 393.588C389.854 392.603 389.747 391.239 390.476 390.467C391.346 389.546 392.99 389.771 394.112 389.811C397.193 389.92 400.267 390.185 403.353 390.243C404.268 390.26 405.356 390.133 406.22 390.519C407.241 390.98 407.191 392.413 407.18 393.369C407.163 394.9 406.995 396.432 406.938 397.963C406.882 399.495 406.854 401.026 406.865 402.552C406.882 404.36 406.961 406.168 407.056 407.97C407.146 409.645 407.326 411.332 407.326 413.007C407.326 414.407 406.899 415.616 405.468 415.984C404.077 416.353 402.483 416.174 401.053 416.197C399.97 416.214 399.97 417.942 401.053 417.924C403.594 417.89 407.275 418.385 408.554 415.483C409.166 414.107 408.998 412.57 408.913 411.108C408.812 409.305 408.7 407.498 408.627 405.696C408.481 402.172 408.509 398.631 408.762 395.108C408.874 393.576 409.065 391.763 408.358 390.341C407.859 389.339 406.894 388.815 405.844 388.642C404.487 388.423 403.078 388.516 401.709 388.464C399.987 388.4 398.27 388.285 396.547 388.193C394.028 388.055 389.893 387.278 388.608 390.26C388.058 391.538 388.137 393.041 388.086 394.411C388.025 396.19 387.991 397.969 388.002 399.748C388.019 403.237 388.305 406.749 388.193 410.238C388.114 412.743 387.52 416.082 390.224 417.412C391.705 418.137 393.613 417.982 395.212 417.993C397.153 418.005 399.1 417.953 401.042 417.93C402.136 417.907 402.141 416.18 401.053 416.197Z" fill="#613DE4"/>
<rect x="390" y="388" width="19" height="28" rx="5" fill="#613DE4"/>
<path d="M402.053 415.197C399.146 415.237 396.206 415.399 393.311 415.174C392.223 415.093 391.241 414.685 390.927 413.539C390.657 412.543 390.753 411.466 390.82 410.447C391 407.655 390.798 404.834 390.741 402.041C390.68 398.886 390.691 395.737 390.814 392.588C390.854 391.603 390.747 390.239 391.476 389.467C392.346 388.546 393.99 388.771 395.112 388.811C398.193 388.92 401.267 389.185 404.353 389.243C405.268 389.26 406.356 389.133 407.22 389.519C408.241 389.98 408.191 391.413 408.18 392.369C408.163 393.9 407.995 395.432 407.938 396.963C407.882 398.495 407.854 400.026 407.865 401.552C407.882 403.36 407.961 405.168 408.056 406.97C408.146 408.645 408.326 410.332 408.326 412.007C408.326 413.407 407.899 414.616 406.468 414.984C405.077 415.353 403.483 415.174 402.053 415.197C400.97 415.214 400.97 416.942 402.053 416.924C404.594 416.89 408.275 417.385 409.554 414.483C410.166 413.107 409.998 411.57 409.913 410.108C409.812 408.305 409.7 406.498 409.627 404.696C409.481 401.172 409.509 397.631 409.762 394.108C409.874 392.576 410.065 390.763 409.358 389.341C408.859 388.339 407.894 387.815 406.844 387.642C405.487 387.423 404.078 387.516 402.709 387.464C400.987 387.4 399.27 387.285 397.547 387.193C395.028 387.055 390.893 386.278 389.608 389.26C389.058 390.538 389.137 392.041 389.086 393.411C389.025 395.19 388.991 396.969 389.002 398.748C389.019 402.237 389.305 405.749 389.193 409.238C389.114 411.743 388.52 415.082 391.224 416.412C392.705 417.137 394.613 416.982 396.212 416.993C398.153 417.005 400.1 416.953 402.042 416.93C403.136 416.907 403.141 415.18 402.053 415.197Z" fill="#111112"/>
<path d="M397.731 397.672C398.039 396.39 399.335 395.13 400.705 395.942C402.338 396.906 400.694 398.948 399.872 399.856C397.509 402.477 394.831 405.325 395.008 409.109C395.031 409.574 395.385 409.954 395.865 409.96C399.301 410 402.737 410.011 406.174 409.988C407.275 409.983 407.275 408.281 406.174 408.286C402.737 408.309 399.301 408.298 395.865 408.258C396.15 408.542 396.435 408.825 396.721 409.109C396.612 406.794 397.84 404.78 399.29 403.067C400.642 401.467 402.68 399.879 403.046 397.706C403.371 395.76 401.927 394.132 399.986 394.007C398.057 393.882 396.51 395.459 396.081 397.224C395.819 398.285 397.474 398.738 397.731 397.672Z" fill="white"/>
<path d="M130.539 309.776C127.079 309.826 123.579 310.025 120.132 309.748C118.837 309.649 117.668 309.144 117.294 307.731C116.973 306.503 117.087 305.175 117.167 303.918C117.38 300.474 117.14 296.995 117.073 293.551C117 289.66 117.013 285.776 117.16 281.892C117.207 280.677 117.08 278.994 117.948 278.043C118.984 276.907 120.941 277.184 122.276 277.233C125.944 277.368 129.604 277.695 133.278 277.766C134.366 277.787 135.662 277.631 136.691 278.107C137.906 278.675 137.846 280.443 137.833 281.622C137.813 283.511 137.613 285.399 137.546 287.288C137.479 289.177 137.446 291.066 137.459 292.948C137.479 295.177 137.572 297.407 137.686 299.629C137.793 301.696 138.007 303.776 138.007 305.843C138.007 307.568 137.499 309.059 135.796 309.514C134.139 309.968 132.242 309.748 130.539 309.776C129.25 309.798 129.25 311.928 130.539 311.907C133.565 311.864 137.947 312.475 139.469 308.896C140.197 307.199 139.997 305.303 139.897 303.499C139.777 301.277 139.643 299.047 139.556 296.825C139.383 292.479 139.416 288.112 139.717 283.766C139.85 281.877 140.077 279.641 139.236 277.887C138.641 276.651 137.492 276.005 136.243 275.792C134.627 275.522 132.95 275.636 131.32 275.572C129.27 275.494 127.226 275.352 125.175 275.238C122.176 275.068 117.254 274.109 115.724 277.787C115.069 279.364 115.163 281.217 115.103 282.907C115.029 285.101 114.989 287.295 115.003 289.489C115.023 293.793 115.363 298.124 115.23 302.427C115.136 305.516 114.428 309.634 117.648 311.275C119.411 312.169 121.682 311.978 123.586 311.992C125.897 312.006 128.215 311.942 130.526 311.914C131.828 311.885 131.835 309.755 130.539 309.776Z" fill="#613DE4"/>
<rect x="118" y="277" width="22" height="32" fill="#613DE4"/>
<path d="M132.161 308.837C128.562 308.885 124.922 309.078 121.338 308.809C119.99 308.712 118.774 308.222 118.385 306.847C118.052 305.652 118.17 304.36 118.253 303.137C118.476 299.786 118.226 296.401 118.156 293.05C118.08 289.264 118.094 285.484 118.246 281.705C118.295 280.524 118.163 278.887 119.066 277.961C120.143 276.855 122.178 277.125 123.568 277.173C127.381 277.304 131.188 277.622 135.009 277.691C136.141 277.712 137.489 277.56 138.558 278.023C139.823 278.576 139.76 280.296 139.746 281.443C139.725 283.281 139.517 285.118 139.448 286.956C139.378 288.794 139.343 290.632 139.357 292.462C139.378 294.632 139.475 296.801 139.593 298.964C139.705 300.974 139.927 302.999 139.927 305.009C139.927 306.688 139.399 308.139 137.628 308.581C135.905 309.023 133.932 308.809 132.161 308.837C130.82 308.857 130.82 310.93 132.161 310.909C135.307 310.868 139.864 311.462 141.448 307.98C142.205 306.329 141.997 304.484 141.893 302.729C141.768 300.567 141.629 298.397 141.539 296.235C141.358 292.006 141.393 287.758 141.705 283.529C141.844 281.692 142.08 279.515 141.205 277.809C140.587 276.607 139.392 275.978 138.093 275.771C136.412 275.508 134.668 275.619 132.973 275.556C130.841 275.48 128.715 275.342 126.582 275.232C123.463 275.066 118.344 274.133 116.753 277.712C116.072 279.246 116.169 281.049 116.107 282.693C116.03 284.828 115.989 286.963 116.003 289.098C116.023 293.285 116.378 297.499 116.239 301.686C116.142 304.691 115.405 308.698 118.754 310.294C120.587 311.165 122.949 310.978 124.929 310.992C127.333 311.006 129.743 310.944 132.147 310.916C133.501 310.888 133.508 308.816 132.161 308.837Z" fill="#111112"/>
<path d="M123 285.03C123.029 286.62 123.123 288.211 123.289 289.794C123.368 290.567 123.469 291.334 123.577 292.108C123.678 292.832 123.707 293.67 124.01 294.344C124.63 295.75 126.203 295.395 127.458 295.317C129.153 295.217 130.841 295.118 132.536 295.011C133.005 294.983 133.459 294.699 133.582 294.231C133.914 292.931 134.058 291.604 133.979 290.262C133.899 288.899 131.844 288.885 131.815 290.262C131.692 295.501 131.569 300.733 131.447 305.972C131.418 307.343 133.582 307.343 133.611 305.972C133.733 300.733 133.856 295.501 133.979 290.262C133.257 290.262 132.536 290.262 131.815 290.262C131.887 291.426 131.786 292.534 131.497 293.663C131.844 293.4 132.19 293.144 132.543 292.882C131.202 292.96 129.86 293.045 128.518 293.123C127.876 293.159 127.234 293.201 126.592 293.237C126.369 293.251 125.893 293.208 125.676 293.286C125.936 293.514 126.037 293.528 125.965 293.329C125.936 293.18 125.907 293.031 125.886 292.882C125.438 290.291 125.229 287.657 125.179 285.03C125.135 283.66 122.971 283.653 123 285.03Z" fill="white"/>
<path d="M347.431 83.3173C344.663 83.3549 341.863 83.5054 339.106 83.2958C338.069 83.2206 337.134 82.839 336.835 81.7697C336.578 80.8401 336.669 79.8352 336.733 78.8841C336.904 76.2779 336.712 73.6449 336.659 71.0387C336.6 68.094 336.61 65.1546 336.728 62.2153C336.765 61.2964 336.664 60.0228 337.359 59.3028C338.187 58.443 339.752 58.6526 340.821 58.6902C343.755 58.7923 346.683 59.0395 349.622 59.0932C350.493 59.1093 351.53 58.9911 352.353 59.3511C353.325 59.781 353.277 61.1191 353.266 62.0111C353.25 63.4404 353.09 64.8698 353.037 66.2992C352.983 67.7286 352.956 69.1579 352.967 70.5819C352.983 72.2692 353.058 73.9565 353.149 75.6385C353.234 77.2022 353.405 78.7766 353.405 80.3403C353.405 81.6461 352.999 82.7746 351.637 83.1185C350.311 83.4624 348.794 83.2958 347.431 83.3173C346.4 83.3334 346.4 84.9455 347.431 84.9294C349.852 84.8971 353.357 85.3592 354.576 82.651C355.158 81.3667 354.998 79.9319 354.918 78.5671C354.821 76.8851 354.714 75.1978 354.645 73.5159C354.506 70.2273 354.533 66.9225 354.773 63.6339C354.88 62.2045 355.062 60.5118 354.389 59.1846C353.913 58.2496 352.994 57.7606 351.995 57.5994C350.701 57.3952 349.36 57.4811 348.056 57.4328C346.416 57.3737 344.781 57.2662 343.14 57.1802C340.741 57.0513 336.803 56.3258 335.579 59.1093C335.055 60.3023 335.13 61.7048 335.082 62.9837C335.023 64.6441 334.991 66.3046 335.002 67.965C335.018 71.2214 335.291 74.4993 335.184 77.7556C335.109 80.0931 334.542 83.2098 337.118 84.4511C338.529 85.1282 340.346 84.9831 341.869 84.9938C343.717 85.0046 345.572 84.9562 347.421 84.9347C348.463 84.9132 348.468 83.3012 347.431 83.3173Z" fill="#613DE4"/>
<rect x="337" y="57" width="18" height="26" rx="4" fill="#613DE4"/>
<path d="M348.431 82.3173C345.663 82.3549 342.863 82.5054 340.106 82.2958C339.069 82.2206 338.134 81.839 337.835 80.7697C337.578 79.8401 337.669 78.8352 337.733 77.8841C337.904 75.2779 337.712 72.6449 337.659 70.0387C337.6 67.094 337.61 64.1546 337.728 61.2153C337.765 60.2964 337.664 59.0228 338.359 58.3028C339.187 57.443 340.752 57.6526 341.821 57.6902C344.755 57.7923 347.683 58.0395 350.622 58.0932C351.493 58.1093 352.53 57.9911 353.353 58.3511C354.325 58.781 354.277 60.1191 354.266 61.0111C354.25 62.4404 354.09 63.8698 354.037 65.2992C353.983 66.7286 353.956 68.1579 353.967 69.5819C353.983 71.2692 354.058 72.9565 354.149 74.6385C354.234 76.2022 354.405 77.7766 354.405 79.3403C354.405 80.6461 353.999 81.7746 352.637 82.1185C351.311 82.4624 349.794 82.2958 348.431 82.3173C347.4 82.3334 347.4 83.9455 348.431 83.9294C350.852 83.8971 354.357 84.3592 355.576 81.651C356.158 80.3667 355.998 78.9319 355.918 77.5671C355.821 75.8851 355.714 74.1978 355.645 72.5159C355.506 69.2273 355.533 65.9225 355.773 62.6339C355.88 61.2045 356.062 59.5118 355.389 58.1846C354.913 57.2496 353.994 56.7606 352.995 56.5994C351.701 56.3952 350.36 56.4811 349.056 56.4328C347.416 56.3737 345.781 56.2662 344.14 56.1802C341.741 56.0513 337.803 55.3258 336.579 58.1093C336.055 59.3023 336.13 60.7048 336.082 61.9837C336.023 63.6441 335.991 65.3046 336.002 66.965C336.018 70.2214 336.291 73.4993 336.184 76.7556C336.109 79.0931 335.542 82.2098 338.118 83.4511C339.529 84.1282 341.346 83.9831 342.869 83.9938C344.717 84.0046 346.572 83.9562 348.421 83.9347C349.463 83.9132 349.468 82.3012 348.431 82.3173Z" fill="#111112"/>
<path d="M343.867 64.8375C344.366 64.4986 344.875 64.1862 345.405 63.9055C345.535 63.8367 345.686 63.7837 345.806 63.699C346.081 63.5031 345.889 63.699 345.868 63.5084C345.899 63.7837 345.936 63.9585 345.837 64.2497C345.473 65.3406 344.511 66.3255 343.726 67.1198C343.118 67.7341 343.934 68.9044 344.672 68.3696C345.801 67.5435 347.308 67.5329 348.327 68.5708C348.852 69.1056 349.065 69.7993 349.216 70.5248C349.357 71.2026 349.497 71.9228 349.445 72.6165C349.336 74.1839 347.438 74.3322 346.206 74.3957C345.239 74.4434 342.946 74.5281 342.546 73.2943C342.234 72.3252 340.726 72.7436 341.044 73.7179C341.709 75.7831 344.272 76.0638 346.092 75.9896C348.01 75.9102 350.557 75.4654 350.937 73.1672C351.093 72.214 350.932 71.2503 350.755 70.3077C350.552 69.2433 350.194 68.2213 349.424 67.4429C347.942 65.9443 345.577 65.7589 343.882 66.9981C344.199 67.4164 344.511 67.8294 344.828 68.2478C346.014 67.0457 347.849 65.1447 347.428 63.2648C347.251 62.4652 346.549 61.8403 345.717 62.0363C344.797 62.2587 343.856 62.9471 343.082 63.4713C342.245 64.0273 343.03 65.4041 343.867 64.8375Z" fill="white"/>
<path d="M109.013 104.817C105.225 104.868 101.393 105.073 97.6193 104.787C96.2006 104.685 94.9208 104.166 94.5112 102.711C94.1602 101.445 94.2845 100.078 94.3723 98.7833C94.6063 95.2364 94.343 91.653 94.2699 88.1061C94.1894 84.0984 94.2041 80.0981 94.365 76.0978C94.4162 74.8472 94.2772 73.114 95.2279 72.134C96.3615 70.9639 98.5042 71.2491 99.9669 71.3003C103.982 71.4392 107.989 71.7757 112.012 71.8488C113.204 71.8707 114.623 71.7098 115.749 72.1998C117.08 72.7849 117.014 74.6059 116.999 75.8199C116.977 77.7652 116.758 79.7105 116.685 81.6558C116.612 83.6011 116.575 85.5464 116.59 87.4844C116.612 89.7808 116.714 92.0771 116.838 94.3662C116.955 96.4943 117.189 98.6371 117.189 100.765C117.189 102.542 116.634 104.078 114.769 104.546C112.955 105.014 110.878 104.787 109.013 104.817C107.602 104.839 107.602 107.033 109.013 107.011C112.326 106.967 117.124 107.596 118.791 103.91C119.588 102.162 119.369 100.209 119.259 98.3519C119.127 96.0628 118.981 93.7665 118.886 91.4774C118.696 87.0018 118.733 82.5041 119.062 78.0285C119.208 76.0831 119.457 73.7795 118.535 71.9731C117.884 70.7006 116.626 70.0351 115.259 69.8157C113.489 69.5378 111.653 69.6548 109.869 69.589C107.624 69.5086 105.386 69.3623 103.141 69.2453C99.8572 69.0698 94.4673 68.0825 92.7926 71.8707C92.0759 73.4943 92.1783 75.403 92.1125 77.1436C92.032 79.4033 91.9882 81.6631 92.0028 83.9229C92.0247 88.3547 92.3977 92.8158 92.2514 97.2476C92.1491 100.429 91.3739 104.67 94.8988 106.36C96.8295 107.281 99.316 107.084 101.4 107.098C103.931 107.113 106.468 107.047 108.999 107.018C110.425 106.989 110.432 104.795 109.013 104.817Z" fill="#613DE4"/>
<rect x="96" y="70" width="24" height="34" fill="#613DE4"/>
<path d="M111.013 103.817C107.225 103.868 103.393 104.073 99.6193 103.787C98.2006 103.685 96.9208 103.166 96.5112 101.711C96.1602 100.445 96.2845 99.0778 96.3723 97.7833C96.6063 94.2364 96.343 90.653 96.2699 87.1061C96.1894 83.0984 96.2041 79.0981 96.365 75.0978C96.4162 73.8472 96.2772 72.114 97.2279 71.134C98.3615 69.9639 100.504 70.2491 101.967 70.3003C105.982 70.4392 109.989 70.7757 114.012 70.8488C115.204 70.8707 116.623 70.7098 117.749 71.1998C119.08 71.7849 119.014 73.6059 118.999 74.8199C118.977 76.7652 118.758 78.7105 118.685 80.6558C118.612 82.6011 118.575 84.5464 118.59 86.4844C118.612 88.7808 118.714 91.0771 118.838 93.3662C118.955 95.4943 119.189 97.6371 119.189 99.7652C119.189 101.542 118.634 103.078 116.769 103.546C114.955 104.014 112.878 103.787 111.013 103.817C109.602 103.839 109.602 106.033 111.013 106.011C114.326 105.967 119.124 106.596 120.791 102.91C121.588 101.162 121.369 99.2094 121.259 97.3519C121.127 95.0628 120.981 92.7665 120.886 90.4774C120.696 86.0018 120.733 81.5041 121.062 77.0285C121.208 75.0831 121.457 72.7795 120.535 70.9731C119.884 69.7006 118.626 69.0351 117.259 68.8157C115.489 68.5378 113.653 68.6548 111.869 68.589C109.624 68.5086 107.386 68.3623 105.141 68.2453C101.857 68.0698 96.4673 67.0825 94.7926 70.8707C94.0759 72.4943 94.1783 74.403 94.1125 76.1436C94.032 78.4033 93.9882 80.6631 94.0028 82.9229C94.0247 87.3547 94.3977 91.8158 94.2514 96.2476C94.1491 99.4288 93.3739 103.67 96.8988 105.36C98.8295 106.281 101.316 106.084 103.4 106.098C105.931 106.113 108.468 106.047 110.999 106.018C112.425 105.989 112.432 103.795 111.013 103.817Z" fill="#111112"/>
<path d="M113.163 78.6885C110.655 79.0834 108.124 79.3394 105.587 79.3979C104.709 79.4198 103.108 79.0542 102.574 79.961C102.362 80.3267 102.369 80.8093 102.347 81.2262C102.237 83.4275 102.245 85.68 102.347 87.8812C102.405 89.0879 104.175 89.4097 104.504 88.1738C104.358 88.7222 104.095 88.5906 104.497 88.4224C104.607 88.3785 104.709 88.32 104.812 88.2688C104.987 88.1884 105.17 88.1226 105.353 88.0567C106.23 87.7569 107.174 87.6618 108.081 87.8666C109.631 88.2103 111.167 89.3585 111.423 91.0186C111.723 92.9859 110.011 93.7903 108.351 93.9219C106.318 94.0755 104.27 93.9 102.237 93.8488C100.826 93.8122 100.826 96.0062 102.237 96.0428C103.627 96.072 105.016 96.1671 106.406 96.1744C107.722 96.1817 109.17 96.189 110.435 95.7649C112.937 94.9239 114.231 92.2765 113.353 89.7827C112.512 87.3986 110.209 85.8555 107.744 85.6068C106.603 85.4898 105.44 85.6653 104.38 86.0895C103.641 86.382 102.603 86.7257 102.376 87.5887C103.093 87.6838 103.81 87.7862 104.534 87.8812C104.439 85.8189 104.453 83.7273 104.519 81.665C104.526 81.4529 104.534 81.2481 104.548 81.0361C104.556 80.9556 104.563 80.8825 104.563 80.802C104.57 80.568 104.541 80.9044 104.548 80.8752C104.695 80.6192 103.4 81.4529 103.971 81.5992C104.234 81.665 104.578 81.5992 104.848 81.5992C105.433 81.5919 106.018 81.5772 106.603 81.5553C108.995 81.4529 111.372 81.175 113.734 80.802C114.326 80.707 114.64 79.9756 114.502 79.4491C114.348 78.8275 113.748 78.5934 113.163 78.6885Z" fill="#FBFCFE"/>
</svg>
